<mxfile host="app.diagrams.net" modified="2023-12-03T22:12:53.088Z" agent="Mozilla/5.0 (Windows NT 10.0; Win64; x64) AppleWebKit/537.36 (KHTML, like Gecko) Chrome/119.0.0.0 Safari/537.36 Edg/119.0.0.0" etag="yMXI6BGy_RKW8qxsHy-E" version="22.1.5" type="device" pages="2">
  <diagram name="Страница — 1" id="o3sYmgAIau1fM3dsohi6">
    <mxGraphModel dx="2320" dy="1200" grid="1" gridSize="10" guides="1" tooltips="1" connect="1" arrows="1" fold="1" page="1" pageScale="1" pageWidth="3300" pageHeight="2339" math="0" shadow="0">
      <root>
        <mxCell id="0" />
        <mxCell id="1" parent="0" />
        <mxCell id="9Vf31KSs8LojfyU494A8-19" value="" style="shape=image;imageAspect=0;verticalLabelPosition=bottom;verticalAlign=top;image=data:image/png,iVBORw0KGgoAAAANSUhEUgAAA48AAALnCAYAAAApuXKMAAAAAXNSR0IArs4c6QAACd10RVh0bXhmaWxlACUzQ214ZmlsZSUyMGhvc3QlM0QlMjJhcHAuZGlhZ3JhbXMubmV0JTIyJTIwbW9kaWZpZWQlM0QlMjIyMDIzLTEyLTAxVDAxJTNBMjIlM0ExOC4wMDlaJTIyJTIwYWdlbnQlM0QlMjJNb3ppbGxhJTJGNS4wJTIwKFdpbmRvd3MlMjBOVCUyMDEwLjAlM0IlMjBXaW42NCUzQiUyMHg2NCklMjBBcHBsZVdlYktpdCUyRjUzNy4zNiUyMChLSFRNTCUyQyUyMGxpa2UlMjBHZWNrbyklMjBDaHJvbWUlMkYxMTkuMC4wLjAlMjBTYWZhcmklMkY1MzcuMzYlMjBFZGclMkYxMTkuMC4wLjAlMjIlMjBldGFnJTNEJTIyU2JGQmxuYUFJSWZNTHd1b1YyMzYlMjIlMjB2ZXJzaW9uJTNEJTIyMjIuMS41JTIyJTIwdHlwZSUzRCUyMmRldmljZSUyMiUyMHBhZ2VzJTNEJTIyMiUyMiUzRSUzQ2RpYWdyYW0lMjBpZCUzRCUyMlkweTNjS3YtNEEyYUlNSElhMGtpJTIyJTIwbmFtZSUzRCUyMlBhZ2UtMSUyMiUzRTdadlJtNW80RU1EJTJGR2g1M1AwaFE0QkVCZCUyRmV1Nm4wdTI5NHJsYXp5SFJJUFkzWHZyNzhRQ0lKSmU3UWxXdDN6QVhFSUVINHpHV2FTVVlQZSUyQnZDUVI1dlZCTWNvMVlBZUh6VG9hd0NZdW1QVHIwTHlWa3FBWmV1bFpKa25jU2t6am9MbjVCOVVDWG16WFJLamJhc2h3VGdseWFZdFhPQXNRd3ZTa2tWNWp2ZnRacTg0YmQ5MUV5MlJJSGhlUktrbyUyRlpURVpGVks3WUYlMkJsRCUyQmlaTG5pZHpiMDZzZzY0bzByd1hZVnhYamZFTUZBZzE2T01TbjMxZ2NQcFFVOXpxVThiJTJGeVZvM1hIY3BTUkxpZUE4b1F2VWJxcm5xM3FGM25qRDV2alhSYWpvcjJ1d2RGJTJCbFJEMHZJa1d4ZEU5MVMlMkJWcmNnNnBiOE11aXZldiUyQnJTRjVRVGRHaUlxdjQ4SUx4R0pIJTJCalRhcWpkd05PcXpLUE96aXNCUHNqYklmYndxb0IyaklyWVZRcGVGbGYlMkZjaUE3bFFZNUVqZ1RTR3BUZTlua0poWGdBVFk1eVJpRDNwR3NpVTUlMkZndDVPTVU1bGNUb05kcWx0TU9qVjV5UnlnRWE0SnpXWkN0RE54VFF2VHdIOUV0M1F3MjZBa2I2Vk9SYnJES2NvUUpVa3FZbm9paE5saG45dWFDc0VKV1BDa1lKZGVOdWRXQ2R4SEZ4RzZseTJ1cTdtQjZHRWozQVB0UmdYYkVGbTZBRE9ZVW1iQXZzM0pmd2NUWm45cXRyRkpmTHRxTnlhMm1Va04yVUdHd2JNRGxnVzR0SmJMWjFxJTJGM3lVazU1UVlwa3lJQiUyQnp1bmVrakNVdzc5M1JhZ3dlc1NFQlZtUGVMdEpDRFY4VXVDYVJCa05SZFlGNkxxbGd2R1ZvbGZ5NjQydVRqWml5R3lranlqQ2RnUVQ4ZDB3S0EwRUdQZUdjVSUyQiUyRjRidlJSZzMxbTlvd0REWGFjSFJCRzMlMkZNWjc4RlhuZ2NzY2RocHY4JTJGcnI1clhCa1NUVnFLWGx1T0lXaHlIbnhrV2h4RzY0SkE5bm03WVklMkJxbjRxQSUyQmY2R0hYVHVCNmZxc3Jpb05mUVVPVUtuN3hTemE1elIxSlZHYlk5OWVzSnFkUEZtWUNBUzViS2ZJdHAzaG5yT3lFMGtCMFZqVkVhdTcwVDJzdVFrZmxjWnVXdk9kd1Z5ZGZwJTJCRG5KaXVuczk1SWFuN3c2Wm05TWw1SHBKc3h3eFJmMDBtJTJGJTJGJTJCTkgwNEQ4R1RWM3N2cG1oMElHcllxbXhSekZ2OXVUc09id2luNUcyaURxZVk0ODBEYnphWkJGTSUyRjhHOElxaXpBVndXMTloek5YTzFsOU9ISmM4T24yZlIycU1wZVFncXBpbm5UdGFLMHVzd2ttSkowcGglMkJRbDhwbnpnQlM1anpWZ2J4VUduTUdrREtIcVE3a3BiSWE5U0NsUGxJZFNESEptUWV1SDh3Rm5EZTdKdFhGdDhwV3BQcmhMNlpLYk03ODNkQUg0b0lna016VnFWT0FHTkR5UmFmdEpzcGFXdUR6M2dXR3V5M2pVQzV0YkE1YWMyV0tyMVc1T3I4VTdVWjVOYjZJZFNYWjhJOEhIcjFrdyUyRlVNYlVNNzNtd2FCbjhxV2piJTJGSldlME95bkJra1hSdmFoQUVrV3pwYU9CY2lzR2hqaW5QV2FmbmhLVUxnVTEwdVhTbnF6N0FuRzFhcWFHOWQ5SWdVS0hJUWFHMDVrZlhFZVJqWGxHczFaVlkxUG4lMkZFME52RXhHVnhGUjlxU0FMbU5nNktqaWY0bkpkMU90VTRHd0RiUnI4VjQlMkZMMEJ4U2o1OENqJTJCOE01OEN3U1Y5aWppSiUyRjkxQk92aEtrTTRxWUV4V2p3WlpEWnJQNjlHb1pNZ3IxT2olMkJXR3RXeWZEVDZwSzJzc2pOYTV5Zzg2TjBDeHFGY0g2ajdHMmdnYnBlcm03Z05ub3pibHpFYmZXJTJCVTJKeHV3WUpqbmtpOXdxU0tTZ29LOHI1Z1JvUCUyQnZQNER3VjJyUEZIRHhqOEN3JTNEJTNEJTNDJTJGZGlhZ3JhbSUzRSUzQ2RpYWdyYW0lMjBpZCUzRCUyMnN0bWRoSGdsZV9zTDRIYWpKQmpIJTIyJTIwbmFtZSUzRCUyMiVEMCVBMSVEMSU4MiVEMSU4MCVEMCVCMCVEMCVCRCVEMCVCOCVEMSU4NiVEMCVCMCUyMCVFMiU4MCU5NCUyMDIlMjIlM0VuWkt4RG9Jd0VJYWZwbnZ0RWFLckZYVnhZbkJ1YUlVbWhTT2xCdlRwQlF0aXcwQTBhZExrJTJCNyUyRmNYUzhsd012dVpFVmRYRkFxUXhpVkhZRURZV3dUczZpJTJGQnZMd1pCdFJEM0tyNVNqTklOVlBOY0pKdTJ1cG1rQjBpTWJwT29RWlZwWEtYTUNFdGRpRzJnMU4yTFVXdVZxQU5CTm1TYTlhdXNKVEFFcm40S3gwWG95dCUyQjJqbmsxSk05cWcyaFpEWWZpRklDSXNKZzA0UTJKT0JoUWU0UlhTcjJpU1hIVmRtMlA2MFdOJTJGMyUyQkglMkJCeiUyQk90cXR4dk5ZSDMxc3I0YnlmNE9aQzhBQSUzRCUzRCUzQyUyRmRpYWdyYW0lM0UlM0MlMkZteGZpbGUlM0XTq78pAAAgAElEQVR4Xuzdf7B1VV0/8O00/dAQjKnEAaqBxhgmQSWbYMhKxJppbAQGwl8IaIAIDA5CCIINoDIYY4Mk+AsJsFBGZfIPU8LMEEzSRIqxRqgGEHQmEpSmMnu+89kz637X3c/e95x7n73OPevs1/2Hh3vP2Wt/Xmvts897r/3jKY0fAgQIECBAgAABAgQIECAwQ+AphAgQIECAAAECBAgQIECAwCyBCI87Zr3I3wkQIECAAAECBAgQIEBg2gJteNyxQ37c6jB4ylOeEoBbfbv3ESBAYFAgPl8W8eMzbBHK2tguAfvp7ZKvs92pjZep1VvnqFyetY7xIjzuYn/Y6HYR0NsJEBAejQECBQXspwviruCipzZeplbvCg7ZhZYkPI7AbaMbAdEiCBDoFTDzaGAQ2HUB++ldN5zSEqY2XqZW75TGcolahccRVG10IyBaBAECwqMxQKCQgP10IdgVXezUxsvU6l3RYbuwsoTHEahtdCMgWgQBAsKjMUCgkID9dCHYFV1s33h55zvf2Zx33nnrKn7Zy17WXH/99c0ee+yx7vevf/3rm0cffXTtbx//+MebY445plfrYx/7WHP//ffvtOx48WmnndZcc801xZW79XbX94orrmjOPffcdeux0WsefPDBtt5DDjlk3fqH4QMPPNBcfvnlzYknntjceuutO9UWpm9729vav999993r/r7//vs3N954Y/PII4+0XvHvQw89tH3NXXfd1bz61a9uYl1vu+225tprr91p2S94wQua8N53332Lm65yA8LjCL1rpzQCokUQICA8GgMECgnYTxeCXdHFDoXHO++8c11Y7IbEFGIiwMRPBJwUbhJVvCd+8lAYoaq77EXS5vVGKMyD2eOPP94GucMOO2wtQMb63nLLLWtBLL1mr732autK4fGxxx5bF/BSeMxrj9B31llnNVddddWaVXr/+eef3xx99NG9FLlZvKC7jvG7eZazSOdVaUt4HKEn7ZRGQLQIAgSER2OAQCEB++lCsCu62HnDY184iVCTfmKWrTtzuMzhsS8opkB88cUXN9ddd11b2sknn9xccskl64JxWKTf77PPPu2/I0x+73vfWwvcY4bHfF1jnfrCd7d/8nXshvoVHcpFyhIeR2Dt+5DpOxo1dARks9P43SMxfRvjPKcTdE8HGDr9oksUtXVPB1j0qQDpQyM/5aHvtIoRurfYIrpH9/KG5jllpNiKWfBSCSzyhjmxbe+3335rR5fTaUCnnnrqut/lR4m722L3syAtI07Lyn/y07H6vkzF7+LUozgt6YYbblhbr751iuV2130VPiOWaiBWvjJ9++m0T95oXzg0frvjvDvzkrj63p9OvUtfXvv2qfH+tE/r+3t3GZV3z9Kt/rzhsfvZE+PgjDPOaE4//fQmAlT6rMxPk1zm8Ng3C9jtnPh+Ep/L3dN18zB3/PHHt+ExTnWN8Bynk8YM4pjhMYXaWHb85KewpnU281hm0xIeR3DtfsjExtd3ysKs8LjVafzuxjjv6QR5CB062tTHM/TB13eEbQTe3kW86U1vas+nr/XIUdrBRHEHHXTQumsJ5jllpJSr5S6fwCLDY/ezJMbiO97xjuaAAw5orr766va6nvyLwxNPPNFuh8cee+zaGO6O33lOSep+pnQPvuXBMH0Z33PPPdddu5K/pu96G18ilm9sL3KNNgqPG+0L5/kyHXWk7SL+HaffpbDQ9/7uNtK3T81tljFsLLLvtqOtrYbH6O/3vOc9a5+X0XdHHnnkulMvh/qzez1l1B3X5w2dtjmmS6o31j/NMA5dFzgUHvMgncJjzE7G9YlxjWPUcvPNN7fXPM77fXfWJEf67hpt91176nN/zFHy/5fVGx6HPiy7R3a7Fw/nMz99FxZHs+lo82YuPE6r23dkb+iI3SJnwrofMkOnLCwiPA5NyXdPJ4gvfBvNYG70AdL3wZd/mNx+++3rLgxPH375Edg0DlI7Bx98cHPllVc23aOp+ThJf4ujeR/84Aebb33rW2szoPnY6844RPvx071YPcZIfKg/4xnPWPvim8b4Kaecsnb0MAJqvk3EstLOIWqND8X40Iov2XG0sfv6voCbdjBxxCxqjFNB4oN6nlNGXOhd5sNwWZe6yPDY3e5je4iDG7F9p1OU0udbHFHuO4ocjvnv59mf5J8pfdf+dMNjfLnZbbfd2lOi0peQ/DVD1w8Nre+y9r31Gk9g3vA47/jtrlkKCTFb3p29717Plb5kx39j/G4lPM7zJX88vektad7w2N1n93237d70ZhkPBuThsW+85iNgs+ExvgOlz+dYzmbC40bXPKZt9TOf+Uy7ei95yUt2uqmP8Fhm291yeOzObqUOSkegZ138O/QFIb87VbfkoSN78brtHCD5h8xGpywsIjzOezpBNzzu6sxj+jA84YQT1l34nPo5jsTGB1KEpSOOOGItmEXfxe8ixMVONB8XKZilO2PlbcR70ql0Xdd81iKWkV/43fXJvwjnR8264TE/hS6Fx7e//e3NBRdc0AbGAw88cF3YzF/fFx7zdvMjk/Me5S7zcWCpyyiwyPCYf37lYzpOG41tNLbduClB2o7Tv7tHxmM7S0eaH3rooZk3Q0jbdnzpzm/CkPqjLzxeeumlzUUXXbQWavMDP303TljGvrVOixOYNzx294XzfCbHPih94Y7xns88Db0/3xfFF+QUJPtEljFsLK7ntqelecNj/v0jDkh3v1v1HdBfxv5M9Q59F8zHePTIvNc8poOOaTuIs1jiwN+8M48bhcfuQf2+0Lud2WB7Ru5iWt1yeJw1+N/3vvdteOeovvA4q5OHjuz1hcdFXhSbf8hsdMrCWOGxO40f9acjW/MeEYoPuO5y5r0ldN9s79D1kn3rkz6c4gvos571rHVfLDfqtzRrEAG1e1pF97rRdH5994NwK+ExTrn4xCc+0W6RERRTeIyjXHGBdnwI5l+6u6/vhsf8tfG3WKc4Wh3LcTR5MR98NbWyyPCYH0A5/PDD182wxxiNgyVpB7377ruvBclueMzHcXyZju2xe81jfrZA/pnSd9ZIX3iM2fo4BSrdJCG+ZET4jAM/3VCbL3/ea7trGiPWdbbAZq55zPeF81yzm3+Gdz/f5w2P3fsI5Gfh9O1zF3l21Wzd1XvFvOGxe7A6HTRLZwj1hbFZ35+7j/1YhG5e79ClM/mZHvNcHtUNmGlWtvtdc55LG7oG3Qmr+PtWcsUibFexjS2Hx3RDj6Ed8VZmHvMvLt3nyWx0ZK8vPC6ys/KNbqNTFsYKjxudbrqZ8JiWM8+R1dxznlNs8h1hPkbSuOmetppO28zDY8x8dJ8DFO+L8Jgf2Y11Szvv+HLbPfKXf/Hs+nT/v3vaanzpjYuw039TeIz/f85znrN2jn36wtD3+m547Psykr4I9M3SLHIsa2v5BBYdHtO2FDONEfjiszg/zTq2h7j+MX6GZh674TE/IpzPSqYvWLHdffnLX26viYkZ/e4ZKEPhMQ+w6XTBFB7z28qnXt3o83H5et4ajSkwz8xj375wnv1jX7hLB0eG3p9/R9rMzONmzhIa029qyxoKjxs953Hou1E3aA2Fx75rHhd1sKtbb/emfX2TC93X5AcE+yYCNrqp1NCjOvomS2IflC5Hyq9z7Fu+u62W2XK3HB5jdbrXluWDfOiax3T921C4zL8k5CVvdGRvWcJjXzjsC0NpVizV1/dBspkjMfl1PFu95rH74bbRcNsoPHa/GA59WUv9HLMb+YdGXvcdd9yxbvY61ZnPfqQvn1udeUwHLPKwGx+A6bTVOPob11bG0cR0B7V4T4TXFBTTF+n4e9/r53nG06xT7vKDJ655LPNhuKxLXXR4jLEWAS5ur37UUUe1N2uIz/r4ghvXP8bv08G9rV7zmB+tj6Ps+WfK0JH6dB1Zd3Y+febsvffea88hG9q/CI/LOsrLr9c84THNXuSnTs8Kj0OBM50dM3RAMB/z8xyQjXVLp/qlA5Cxr1rEzVTK987ytdA3XpZvLcdbo6nVO57cNJe0S+GxS5Z/AG5l5nGjI2obHdlblvDYd0S9W1P3S9PQTmCr4bFv59c9GtMXcjdzNHPe8JhmBWKd3va2tzUXXnjh2l3o8vCYX7+Yj5v81Od0V8dDDjlk7QYD6ctkNzB3TyPZ6JrHvjGcn/p27733tjOP+fVfKTxGaIx1jJ8029H3+jw8bjT7nE6/616nOXS0rvRHVlrX7pG/vru/ddexe2ApX9c4yBTjIWatusue5/bzGx20Su3Me9r60OtmnT7cPeKam+Ru+QG17oxzfpQ2/1v3dLRFh8c0ix4hMb9rZNzh+Mknn2xn/tOY7jt1qHvK0zyfZd3PlO7n4tDMYz5zGQeAkmlar/R5ke8jImT23ZWv9PZk+dsrMG943Ow1j7NOletemhEK3W1ks+Ex7ee386Hy29ub5VufWpiaWr3lR9Bqt9AbHjeabo5Tgbo3E0lE+VHdMa95nHVkL75AzLpesmQ3po1uM6cs5DNdfV/G5/nClWrqO/o/63SCvrut5ju0WPbQ7Zo32tHlX+wjCJxzzjntjjJdn5ROy0hfqu+77762nbiAOp7ZmH9xzr+Ex+9POumkJu6qFV/84ic/pXXW3VbT0dlZMw9DM4D5dSx5eIxQG+f1R10xG5lOlete95JvI91rIuJv3S/L85wyUnJMDx2QGTrYkVzjfXngSLUNnZIy605qfTXmNxvqO+iRxs1jjz3W+9ynPGDGdtB9Xaqx+yiI/H35s7vyg0bpgEkaB2lbyWeuu3fj7d5sqftldNHhceiLad/BsXhtN8z3Peex70YG+dkOMdMZP/lNFNLZK/H5mN/Bsi/Y94XYWF73oGNtz4ItvY1PafnzhsduuIv/77tmN/ZvMV7zz/3cMx3EjEsd4t/5Nb/zPucxnSrYt88dGvNT6tOStU4tTE2t3pJjZwrL7g2PfTMd3SNl3S843fdsZeaxOyuXh6PuEba+85j7AtEiOtFGt3XlWTM8W1+yd+6qwDyzpOnC/th24xq57m3qtxoe55057AadOBgRX/TSQYt0p7euRQqI3delz7n8oMes04RzpwhO+U0CZgWuvuvyutvEdoTHXR073k9g2QTsp5etR5Z7faY2XqZW73KPvuVfu97w2Hc0ue90su51jfkFtUPXPKYZp5iZ3OjC40Q361TWdGOFdFpjmsnYzJfPXe0mG93WBYXHrduVfudQeOz22aybWW1mFn0rNQ0dle+7lXh3+Vs9bTVfTl5f/D6fsR+6XmqjMyWWYeZxK/3gPQSWWcB+epl7Z/nWbWrjZWr1Lt+Iq2uNBsNjXWVs79ra6LbXX+tlBOYNj7NuZrVReOxe87jZO8sNzezNe/BoV8Nj36Ng8tOSh8LjRqehhUl+KruZxzLj21KnJWA/Pa3+3tVqpzZeplbvro6Pqb9feBxhBNjoRkC0iKUTGAqP3cA262ZWpWYeu6fS54CLCI99p/d3Z2X7ah86PT+tf9ddeFy6TcMKVShgP11hp23jKk9tvEyt3m0cWivRtPA4Qjfa6EZAtIilE5jnmse4xrB7M5R5AtSu3uBq1qNlSofHoZtVdNvtu5lO/qDlvk7vzmYKj0u3aVihCgXspyvstG1c5amNl6nVu41DayWaFh5H6EYb3QiIFrF0An0Br3u31Vm3qY+73I498zh0quqiZh43ug6779E8sV5xV8ahuxR3A2fXS3hcuk3DClUoYD9dYadt4ypPbbxMrd5tHFor0bTwOEI3po0uPUIg3VwoHikRN/BJXx5TU/PeJGboAdzdVc6fgZb/beiL/Tw3EtkKS74eQ+uULzd90Y67Y8azsPKHKg89JmSjmZr0jMX8uYrpxk1TuUV/HkTCKm4jH2Pw7LPPbobuPDrU1/mjUvLXpOvx5r2ZVd/s5NCyo51YfveupXn7fafJdq+V7Jt57BuT817z2HXtu3V/cslrS+uVbujVvcYzjcvuMyBd87iVTyDvITAs4Mux0bEZgamNl6nVu5mx4LU7CwiPI4yKvvAYjywYmm1Y1fDY/YK/3377Neeee+6gcB4e03MY48Xz+qQFp+V897vfbX7zN39zrc30rMWvf/3rzXHHHbfhuowwDJZiEUPh8S1vectOz19cihW2EjMFzDzOJPICAjMFfDmeSeQFmcDUxsvU6jXYd01AeNw1v/bdaaOL0+niJ2bRvvrVr7anqfWdqtZ3TViayUgP2I4ZinhuZfykR6DksxP5g7h3Zeax+4DvfMYjn+HJ1yFmBQ8++ODmyiuvbPJHuKT1iHVOj2GJmZVTTjmlOfHEE5tbb721rSfNxsS/4/f5zONll13WnHnmmU3UHzX+wi/8QnPQQQetBb/8AfHd8BjrFA9ivvrqq5t4/mB4xcxb/KRldGe8unXttttua+uZW+SPnslr7s4yfe9731ub4RvqrxgnN954YxNt3XTTTW2dMTsYZrH++SxpvDaNg65bXDt37bXXro2RuMtnco51/MM//MN2HL7xjW9s3vWud7X/Tc9lHGHYW8SCBBYVHhdUjmYIECBQhcCOHTuqWM8xVlJ4HENxOssQHkfo6402ulnhMZqPcHDssce2ASm/E2M8C/OBBx5oZzC715/lr4vg0TfLN89pq/lybr/99jbARLB55JFH2v/Gqbfxc8YZZzSnn356++8Ie/FA+FivvI18PbqnsMb7unUcccQRO4XH6667rnnooYfWTmGNENm3HvmpqSkAv+QlL2kibKXTM1PQDMPwSSE2PZi9+3y+qOvUU0/dqR/CJX/8Qt6n+b+jvfe+973t+u6zzz5tv6bnjnad428RTpPBww8/3P5/1JvaCod0M5oDDzywtYrAmEJimEb/5P0W7ZY6LXmETcUitiCwiJ36ItrYQuneQmA0AWN8NMpJLGhq42Vq9U5iEBcsUngcAXdWeEyzQ3lTaeYwD0r77rvvupuL3HHHHWvhsXuTkHz28u1vf/tgeEwzgHnbaeYsBZIITXHaaH4NW37dZj5b1b2ZR36a5A033LC2HkOzofmpqvOEx1jvFKDCKmYS08xiqilfZpwunIJiCrz5euUO3VM887uGptnBCGfd2bp0LeoFF1ywLqjly4vw3X3eX7qOMw+I0ee5Vd6vN998c3PnnXe2ATHWIa3TVVdd1ZqkEJy3KzyOsEEv2SIWsVNfRBtLxmp1JiZgjE+sw3ex3KmNl6nVu4vDY/JvFx5HGAKzwmOadUtN5QGhGyTyINANj+n0xbScFPCGwtGsmcfu7FgsNw8y+ama+Y098pvZzBMeuzcDiXbyWbdZN8yJdYqZzjilM36611Hm4TH+HgHyhBNOWJu9zMN1fhpovDYZxr/zuvLwGH/LT7uN/4/TXaONPHB2w+NQf+WzuhEKNwqP3fAfBx0iTF544YXtDHCEfuFxhI14iRexiJ36ItpYYmKrNgEBY3wCnTxiiVMbL1Ord8ShMslFCY8jdPuuhMfNzDym0ze7M2FbveZxo5nHPKB174qaB6Z8JrJv5rF7quhmZx5jZi6C3Cc+8Ym2p+LU2fyU1fhdvswIV7F+EQqffPLJtZsWxWzk8ccfv+5U0u7M41B4jNOH8xnAeWceh/qrO6u5UXhMpy3nw7R7oyHhcYSNeIkXsYid+iLaWGJiqzYBAWN8Ap08YolTGy9Tq3fEoTLJRQmPI3T7roTHaH4r1zzmD0nf6LTVPPREW91HEwxd85jPeqa7lubXPKZrA2dd89gNj2nmbzMzj+l6z7333nvtFM6hMJVOhY2b86Qb3qRw1g2P+TWKG8085uExPXLhkEMO2eluuhtd85j3V34d50Yzj/k1jxGYU1+l01bNPI6w8VawiEXs1BfRRgXUVnGFBYzxFe7cAqVNbbxMrd4CQ2ZSixQeR+juXQmP6TrH7t1W04xbBMu+u6323eW0ezrnrNNWI5AM3W21+/vuaavprqRDd33Nn68Y65rfOTbI8xvYdE9bTYE6/hsBsHtdYLfLujNxeVDrvjc/Ffetb31rc88996y722vcsCfZp5nD/Bl9Ue9JJ53UfOYzn2mDbP63c845p11eumFPfrpu3l/zzjzmYyBqTta777772o2GuqetptnkvmdejjDULWIbBBaxU19EG9tAp0kCawLGuMGwGYGpjZep1buZseC1OwsIjyOMiiltdJt9BuMIvDvNlo6xzBLL6N7UqEQbljk9gUV8viyijen1nIqXScAYX6beWP51mdp4mVq9yz8Cl3sNhccR+mdKG92iw2OavUunyY7QXaMtojs7m88ujtaIBU1eYBGfL6mN7nNQE37+zNO+G2DF69IZEnmHxQGV9Pif/Frl/Bmy6fWx/cTjfOKOyumZsPmy0nNOPat08pvElgAWsR1tacW8aSkFpjZeplbvUg66ilZKeByhs2x0IyBaBAECvQKL+Hzphsf0fNJYoRQW49T1OE26+7ieeE33ObTxu3StdPz7oIMOWneX5L7n33aL72vHECGwVYFFbEdbXTfvWz6BqY2XqdW7fCOurjUSHkfoLxvdCIgWQYDAUobHWKn8+un77rtv3SNq0kp37/oc4S9mEeOa5nh/up44Xi88GuyLFrCfXrR43e1NbbxMrd66R+f2r73wOEIf2OhGQLQIAgSWNjzmp6t37wIcK9038xiBMX7iRl7pWa0xcyk8GujbIWA/vR3q9bY5tfEytXrrHZnLsebC4wj9YKMbAdEiCBCoJjymu0PnK5zuyBy/yx/vE9c6xrWPt912W3tNYwqP11577bp68+sq4w9OW7VBjClgPz2m5uova2rjZWr1rv4ILluh8DiCr41uBESLIEBgacNjfifh7sxj312G+26q032sTxSbwmRf4cKjDWJMAfvpMTVXf1lTGy9Tq3f1R3DZCoXHEXxtdCMgWgQBAksbHmdd8xinpT766KPts0/jbqh91zTm10S65tFgX7SA/fSixetub2rjZWr11j06t3/thccR+sBGNwKiRRAgsJThcbN3W40ZxmOOOabJ79gaheUBNP5m5tGAX6SA/fQitetva2rjZWr11j9Ct7cC4XEEfxvdCIgWQYDA0oTHu+++e926dJ/zeNZZZzVXXXVVkz+7McLhLbfc0rzuda9rPvCBDzTxnn333XdtOXkIjesfhUcDfpEC9tOL1K6/ramNl6nVW/8I3d4KhMcR/G10IyBaBAEC2x4edQGBVRWwn17Vni1T19TGy9TqLTNqprNU4XGEvrbRjYBoEQQICI/GAIFCAvbThWBXdLFTGy9TqzcN26985SvNK1/5yubrX/968+53v7s544wzNhzRX/3qV5s/+IM/aD73uc81P/jBD5rnPe95zRve8IbmuOOOa8JwKj/C4wg9PdWNbgQ6iyBAYIbAIj5fFtGGjiawnQLG+Hbq19f21MbL1OpNIzIut4jHTD31qU9tnvOc5zQ33nhjs+eee/YO2Liz+Nlnn918//vfb1784hc3P/IjP9KGyG9/+9vNW9/61uacc86ZTIAUHkf4TJvqRjcCnUUQICA8GgMEigvYTxcnXqkGpjZeplZvDNbHHnusiWcWRxiM6/M//elPNzfccEPzohe9aKexHAHxNa95TfOv//qvzfvf//7m8MMPb1/zjW98oznppJOa73znO+17YyZyCj/C4wi9PMWNbgQ2iyBAYA6BRXy+LKKNOUr1EgLFBIzxYrQrueCpjZep1RuD9pOf/GRz8sknNyeeeGLzwhe+sP13BMSYjeyegppe2/f3m266qX081cUXX9yce+65K7k9dIsSHkfo5iludCOwWQQBAnMILOLzZRFtzFGqlxAoJmCMF6NdyQVPbbxMrd4dO3a0Qe9P/uRPmuuuu66JR0y9/OUvb7773e82f/qnf9o8+9nPXjeu47TUSy65pPnIRz7SXt+Y/9xzzz3tdZMHHXRQe6fxpz3taSu5TeRFCY8jdPHUNroRyCyCAIE5BRbx+bKINuYs18sIFBEwxouwruxCpzZeplbvP//zPzeveMUrmqc//enNn/3ZnzV77bVXc+mll7azh303zomZxXjEVFwTmT+iKjaABx98sH22cVwrGbOQP/mTP7my20UqTHgcoYunttGNQGYRBAjMKbCIz5dFtDFnuV5GoIiAMV6EdWUXOrXxMrV6r7322vZU05hNvOiii9px/Nd//dfNCSec0PziL/7iuhvnxGxkXNcYd1rtC49xvWOczvrII4/s9HzjVd1AhMcRenZqG90IZBZBgMCcAt1rL+Z8m5cRIECAwC4IxKmNU/mZ0vfYJ598sr2+8Ytf/GJ7k5tf+7Vfa7s5/f6zn/1seyrrS1/60vb3jz/+eHtd5L333tsbHtPfH374YeFxKhvMGHVOaaMbw8syCBCYX2ARny+LaGP+ir2SwPgCxvj4pqu8xKmNlynVm2YYn//85zfXX399s8cee6wN5auvvro588wzm9e97nXNH//xH7eP4zDzuPOWbuZxhE+/KW10I3BZBAECmxBYxOfLItrYRMleSmB0AWN8dNKVXuDUxsuU6k03v9loAB9wwAHNhz/84SYCZvy45nG9lvA4wsdf2ujSRbN33333uqWedtppzTXXXLN2UW337y972ct2OvoRDyONC3DTTzzEtO8WwPG6yy+/vJ0qj594T3f5+++//7qp9qFlp6n3W2+9dSeVvnXsviiWe9555/VO689bT9wiOX7SOsdRofPPP7/9XRimn7vuuqu9sDlOLYjn8wz9zPu6WL84l717FGqE4WERBHZJYBE79UW0sUsI3kxgFwWM8V0EnNjbpzZeplJvnFoaN8qJ5zX+1m/9VvNjP/ZjO43sv//7v2/+5m/+Zt31kPE9+81vfnP7Xfvoo49e9x53W53Yh8NY5XbDY4SdNLhSIIsHkcatgCPc9f39sMMOWwuHEaBuueWWtXOn0zLiblB5gIr17wuP+fJnBby07Lz9eE+ErrPOOqu56qqrdrqzVKb9lXcAACAASURBVJ9bLOeMM85o/xS3K86DbjdUDrUZ783DY9zZKuqNIz7C41ij1XJqE1jETn0RbdTmbn1XS8AYX63+LF3N1MbLVOpNz2Q8/vjj105L7Y6l9EzHAw88sH1sx95779186lOfam+m0/ecx7huMn4/NMlTeqxux/LNPI6gvlF4jMVH+Nlvv/2aGKzd8JgC0wMPPLA2OxkX8sYdoPLbAcesZt/vNxMeNwqK3Vm8bnicNYMXf3/Pe97TREiOAJhmBDfTZgrD8d9nPetZ7Z2twm6e8BjtR9v3339/G9K7M7Hpdw899NBOr4uZSzOPI2wIFlFEYBE79UW0UQTHQgnMKWCMzwnlZa3A1MbLFOr9n//5n+YNb3hDc/PNN7fft1/1qlf1jvbHHnus/Z74+c9/fu113/zmN9vXxx1V406t6SY73/jGN9o7scYdVyNEPu95z5vEFiQ8jtDNG4XHdCprzAbOM/M4FGKGQthmwuNmZhM389oUgOO/MeMYYe/II49sZ183u5y+7pgVHuM9EcqPPfbYtfYfffTR9hTU++67b+301vS6NDMby02vu/322522OsK2YBHjCyxip76INsaXsUQC8wsY4/NbeaXwuIpj4Ctf+Urzyle+svnpn/7ptRnFoTpjEiQuw3r5y1/efOADH2ie9rSnNR/5yEeas88+u33Li1/84vZmOp/73Oeab3/7201cR3nOOee0Bx2m8CM8jtDLs655TFPZs66JjFXZaAYszWB2Twmddc1jul4xD1IbXScY67GZ0JdOWT399NPb2dKoIZ1yOmvGch7+qDuO9HR/8tnEfOY0X/d4T/pbXAuarKL+fN3ib655nKc3vGbRAov40ruINhbtpj0CuYAxbjxsRmBq42UK9aZA+KY3vWntEqmhMZGCZvw9v3HOX/3VXzVXXnllc8cddzQ/+MEP2pnGmM087rjjJhMcw0R43MynycBrZ522mt6Wz0IOzcqNER6HrnncTCDc7GvTKaOp1jzYbebayT7iWTOP3VCYn+LbDY/5TYjib+nGPHEqgvC4s/7QAY/8Bkr5KcP5EtIYePvb397+unu9bl+/zrs5dtscutZgnjaGDnDEjiadTj40LtNBjVRrOiiTr1+6YVY6KJNvK/l6px1bvC5/zyJ26rMOgG2mv5NBXk/U1L3RQPcGXV3DdJOt3CKWk8ZkWmZs/7Fdz3pdfsp63zhNfz/11FPXXbOdH7TrO5CVtzu0vaTPmX322af3pmZ9N2GYd1vwuvkEFrEdzbcmXlWDwNTGy9TqrWEMLvM6Co8j9M5Ww2M03b05ztC1jfnv47zquIYyZiA3c9rq0KmvsewU8PIvv/OGvr4v6OkL1ymnnNI+XLV7Q56+Noe6YlZ4jC998848DgVE1zz263cPeMSruuNo1oGGfIym8dW33Hk3xe5M91D7Q+EjbyeFvD333HPdw31T8OkGkvTefHY9fpeP0by2I444Ym38x7YQN5VKM/TdGfK4ZjieMRU/+TaziJ36Rp9hm+3voc+1/HrvZJRONY/3dG+sFf//jne8o3nGM56x7q7K3d9HeJzndfE5sdFn2tBY6IbH/EBI92Zms8Z1399Tu3EgoXsXv3m3Ca+bLbCI7Wj2WnhFLQJTGy9Tq7eWcbis6yk8jtAzuxIe+wLdrLut5jMi8e8777yzvb7viSee6L0hT17i0J1Pu3dynRUI0jKHvizl6xXXE+aP8Njo7rF93TErPMZ7tnLNY+7stNX5w2MKB2lWbtZY6RsjeaCMmcl0MGQrm2PfNpQOTsTy+u5SnIeVuE4h1ifd5CldC3vwwQc33/rWt3aaMe1bx7ye7sGMfFvIH0Y8667DyXcRO/VZn2H5Z85W+jt5p4M373vf+3pndfN20gGd3XbbrTnqqKPWglX0zzOf+czmC1/4Qttnadud9bp5wmMchIrl5GNmo/AYdeUeaWZx6OyPeT4v8zGyle3Be/oFFrEdsV8dgamNl6nVuzojdXsqER5HcJ/1xWtW0Op7PuJGz0XMT/fKn+E4dMpUtJ+fFtVddt/syrx3W+2bVUpfqOL0vHQ0fZ42h7piVnhM1y9277Yav++e4pafupbbmXmcPzxuZSaq24d91+9udVPs+0Kelh8BLH66p8zmbW31tNV8Gd2DJfkM99A2MhQkur6L2KmPOfM4VG/yyh9f1J1py9+bQmEe4tNBgdjWo0/z8DjrdfOGx0svvbS56KKL1u54PSs8znocUz5Ohvp8jGvDt7r9TOV9i9iOpmI5hTqnNl6mVu8UxnDJGoXHEXRtdCMgWsRSCsxzk6ehax7zgxJ5OI8Z8r7HzmwVoBtM02Nj4hTQmAEqHR67B1q6M41DYarvoEg6yJJf/7eIz5dZ1zxudN1m6rf0mlkHYjYKj303sQqn9PifCJRxM6543lZ+I6wI67NeN3TNY1rvvO24lXs6oyPGUJoZ7+uzvvAY65n/pGtGh84OER63uvXP/75FbEfzr41XLrvA1MbL1Opd9vG37OsnPI7QQza6ERAtYikF5rnJ06zTGKOw/JrduEtZ+mK+q6fo5Y9biWV1r4csecOcqKvverVueOoLj9317nZ+/p6f+ZmfaXbs2FF0fAzNPPb17az+3pWZx77weNVVVzUXXHBBe61out778MMP3yk8znrdvDOPMZu5++67t9edxgxnhNWNwuOsxzHNM/M4y6xo509k4fbTE+nokcqc2niZWr0jDZPJLkZ4HKHrbXQjIFrEUgr0nWbXvSZ3VpiIwtLsTJxaeM8997Rfynfl5iBD183OMwvahd7qaat9p5unQJnfwCmfiYy/RygZug4zrVtuGjeb2q7wGOuz2f7e6NTMdFOgzVzzGNdzx+vj+tMYO5dccknL1J15nPW6zYTHOOU9Bbq999577YZfQ6fQpxvxuOZxKT/G2pWyn17evlnGNZvaeJlavcs45mpaJ+FxhN6y0Y2AaBFLKTDG3VZTYekOpt1HMmyl8HlmFGO587xuK+Fxo8A8dLfVuDvy0Pp0ZyvzwBl3G93O8LiVa1z77iKd39Rq3rutpmtH46Zb8f6+Z9bmN7va6HWbDY9p/MTjWNIjVbr9526rW9l6t+c99tPb415rq1MbL1Ort9ZxuSzrLTyO0BM2uhEQLWIpBYZmkfJZt1jx7nM+43f5DYni/9Os4JFHHrnuBjabvXnO0HWYfc967D5Co+9ay3nDY/eauLiDcP6Th+J8BjRdUzdrvfPnIm73NY/du4Vupb+7z3ns9s88z3lM4TFdK5ge7dF3emt+x+m+1w1d85jGaT6b2X2kTFreVp/zGMuOm5ZFv0YI7l4T6TmP5T/+7KfLG69SC1MbL1Ord5XG6nbUIjyOoG6jGwHRIggQ6BVYxOfLItrQvQS2U8AY3079+tqe2niZWr31jcjlWmPhcYT+GLrZRFp0/uyyEZpbW0R+9L37bLmhdtLpcXFzibhOJ2aM4mj4Zu9+me4K2X3MR/fRGOkI/ph1L9uy8v6NmYmYWbv//vt7n2O3bOtufZZfYBE79UW0sfzS1nCVBYzxVe7d8Wub2niZWr3jj5hpLVF4HKG/tys85qs+763e+26jn98J89BDD51LJJbzjne8o4nrsdLD1eONQ7+fa6GVvmgoPEY5cZ2bHwK7IrCInfoi2tgVA+8lsKsCxviuCk7r/VMbL1Ord1qjefxqhccRTDcbHtOsXTSdbgARjxnIf5+ueUq3jI+7VN50003tjFa6digFxssuu6w588wz2+to0vvi33FtTfpJ19R0Zx7jNfG3W2+9tb1G7bWvfW3zpS99qYnrh2Kd8mfm5Y9VSMvZbbfdmqOOOmrtzpkx8/bMZz6z+cIXvrAWKvNrn9L1RQceeODaXSfjhhTx030uYN/6x+vS8mJZEXZjHdJD4PNrkrpOYXjllVe2dcbfLr/88tZs6Bl2+XVnUW9q4y//8i/Xrud75JFH1pxjOQcddFDz3Oc+t4nfx8+u3FF0hKFpESsgsIid+iLaWIGuUELFAsZ4xZ23Das+tfEytXq3YUitVJPC4wjduZnwmD8X7ogjjlgLUPEcs/zU0QhI8XPKKae0r3n44YfbkJffMTD+nm5Xn5+22r2rYH7nxrgbYdyEYui01bjVfN96dGfQUniMQBa30I9gFTOY6VTY+P+YkYxwFiEt1j1OYU03MInfRV3xE0E11ituQBLrFj/p1vcRDvP1v++++9b+lm6Lf8ghh7Ttd18Xp+RGSHzWs57Vnp576qmntjOBsQ7x7LZuW93b7OfP4kt3cYw68n5L7T7wwAPrbgIzwrCyCAKtwCJ26otoQ3cS2E4BY3w79etre2rjZWr11jcil2uNhccR+qMbHrt30osm0uzW0APE3/3udzdvectb2meY5aeOdm+TH8tKd6fMH5S90TWPeZuzwmO0na7bi5B0xhlntA/n7p7OmpYZr43QloJihLITTjhhLdR2r3lMp3im8BjPsItAt9Gps/n6d58PN7S8rlM3jKawl7cbs4V50O3e0TH/W36qaqlrWkcYmhaxAgKL2Kkvoo0V6AolVCxgjFfceduw6lMbL1OrdxuG1Eo1KTyO0J2bmXnMZ8fSaaH57GF65EE6nTVWL2bo8oeqzxMeu7eUT8ubJzxGWEshMD3UOz9lNdYpP/01Zk0jYN5www3Nfvvt1+ShNp12G6fFpp8I0ik8prq64XFo/eMRAvGTTiHthse8nRTau2E2D3vd8JifKhvvT6fZRrBMjw0IC+FxhA3HIuYSWMROfRFtzFWsFxEoJGCMF4Jd0cVObbxMrd4VHbYLK0t4HIF6M+FxaOYxndaZVmdoRi2fiRyaeeyeKrrZmcd0+mkEp7h+se+mL93ZwDh19Z577mlnTuMnBeKbb765ufPOO9euoezW1RceuzOAm5l5zEN2suzeTGij8JgHxHxo9D3EPc1emnkcYSOyiEGBRezUF9GGLiawnQLG+Hbq19f21MbL1Oqtb0Qu1xoLjyP0x2bC49A1j32zY7Fq6ZrH+HdcG5hf85eHtPy01Tw8ppm/9P55Zh7jtfl1gX13YO0G0pixS7ObsY594TE96DuuUdxo5jEPj931n/eax/yh4nnIjtNoh8Jj95rHeN0tt9zSXq8ZpmYeR9hYLGLTAvH54ocAAQIEFiuwY8eOxTa4ja0Jj9uIX2HTwuMInbaZ8BjNDd1tNb8rafe01b322qtJdyVNd07NZ9RiuemUywiZF1544dodVM8555y2zXRdYveGOekGMPfee28bkCIs9j3SI6fK/54HtZil7FuvdCfYk046qfnMZz6z7oY9cUfS/PTRdCfWdAfYfP1T+Iub68TdUF/4whc2Tz75ZO/dVtN1pvPOPEbdKdzHXW3TKat9HnkAHXrm5QhDyyIIuGGOMUBgBAFfjkdAnNAipjZeplbvhIZykVKFxxFYS2506TTVvtMxR1j1wUWk6yqX+TmFfTcTKmli2QS2Q6Dk50uqZxFtbIedNgkY48bAVgSm9pk4tXq3Mia85/8LCI8jjIaSG92iw2NqL1jSsx5HIBptEfmsbSw0f0bjaI1YEIElEij5+eKL9RJ1tFUpKrCI7ahoARa+UIGpjZep1bvQwbSCjQmPI3SqjW4ERIsgQKBXYBGfL4toQ/cS2E4BY3w79etre2rjZWr11jcil2uNhccR+sNGNwKiRRAgIDwaAwQKCdhPF4Jd0cVObbxMrd4VHbYLK0t4HIHaRjcCokUQICA8GgMECgnYTxeCXdHFTm28TK3eFR22CytLeByB2kY3AqJFECAgPBoDBAoJ2E8Xgl3RxU5tvEyt3hUdtgsrS3gcgdpGNwKiRRAgsO3hMR6ZE4/8iUfr5D/pxlTp7+eff34Tj9hJP/mja/LH3aS/x2N14hFD8aid+PtZZ53VPq6n+wzZvrs8548wiuWlRxXl6xc30orH96RHDfWtQ3r9FVdc0XSf/Rp/SzcLi0cExU++zvH/sR7vfe9719qI3+WPGOp7Hq4hvTwC9tPL0xc1rMnUxsvU6q1hDC7zOgqPI/SOjW4ERIsgQGBpwmMeDvM7PkeginA5Kzx2w2GEwvi55pprNhUeI7Ddcssta8GzL7zG+p1xxhnt8g866KCm+3ihWMadd9657u7R3We/puUee+yxa+/vBtIUYvM7PAuP9Wy09tP19NUyrOnUxsvU6l2GMVbzOgiPI/SejW4ERIsgQGApw2OsVJoRPP7447cUHiOIxaxgPP7nvvvum2vmcWiWM1/WHnvs0YbR97znPU08CzcC3nXXXdfOcKafecJjPnOad0L++7Schx9+eC08C4/1bLT20/X01TKs6dTGy9TqXYYxVvM6CI8j9J6NbgREiyBAYCnDYx7idmXmcb/99mtn9eY9bTVC4uWXX7426zg0PCLUxU8sO0LukUceudMptRvNPO6+++7NiSee2IbP/FTcWGa+DjfffHPzwAMPtMtPQfiJJ55oTj755OaSSy7Z6RRcw3m5BOynl6s/ln1tpjZeplbvso+/ZV8/4XGEHrLRjYBoEQQILE147F7zGNcJRjjb6jWPL3vZy9ZOG91MeEwhLWYY+37SKaunn356G94i7N12223t6bHzzjxuFB7z01tTeIxAG2HzsMMOa2ImVnisY8O1n66jn5ZlLac2XqZW77KMs1rXQ3gcoedsdCMgWgQBAksTHrvXNKYVmzc8dq95zGfwHnrooblOW51n5nHWzXlivWedtrrZ8Jiu27z44oubSy+9tLnooovMPFaw7dpPV9BJS7SKUxsvU6t3iYZalasiPI7QbTa6ERAtggCBpQ+P+c1z8lM8Z90QJ782MIqc526rQ0E1XeN49dVXt9cexk8+09i9Y+us8BjXR857zWOctprainYeffTR5nvf+57wWMG2az9dQSct0SpObbxMrd4lGmpVrorwOEK32ehGQLQIAgSWPjzGCqbQFDe/STesiesF49TWCJR9p6VuZeYxzRr23W017oq60c178msc5wmP895tNQ+P6T2PPfbYusd3GMbLKWA/vZz9sqxrNbXxMrV6l3Xc1bJewuMIPWWjGwHRIggQqCI8pgB57bXXrq1v/uzFvlNJ999//w2fwZj+fsMNNzTpxjpp4d3nPKbrL4dOa03tpzA7T3iMtuZ5zmMeHuM93cd5GMLLK2A/vbx9s4xrNrXxMrV6l3HM1bROwuMIvWWjGwHRIggQ2PbwqAsIrKqA/fSq9myZuqY2XqZWb5lRM52lCo8j9LWNbgREiyBAQHg0BggUErCfLgS7ooud2niZWr0rOmwXVpbwOAK1jW4ERIsgQEB4NAYIFBKwny4Eu6KLndp4mVq9KzpsF1aW8DgCtY1uBESLIEBAeDQGCBQSsJ8uBLuii53aeJlavSs6bBdWlvA4ArWNbgREiyBAQHg0BggUErCfLgS7ooud2niZWr0rOmwXVpbwOAK1jW4ERIsgQEB4NAYIFBKwny4Eu6KLndp4mVq9KzpsF1aW8DgCtY1uBESLIEBAeDQGCBQSsJ8uBLuii53aeJlavSs6bBdWlvA4ArWNbgREiyBAQHg0BggUErCfLgS7ooud2niZWr0rOmwXVtZaeFxYixoiQIAAAQIECBAgQIAAgSoFntI0zY4dO3ZUufJWmgABAgQIECBAgAABAgTKCzhttbyxFggQIECAAAECBAgQIFC9gPBYfRcqgAABAgQIECBAgAABAuUFhMfyxlogQIAAAQIECBAgQIBA9QLCY/VdqAACBAgQIECAAAECBAiUFxAeyxtrgQABAgQIECBAgAABAtULCI/Vd6ECCBAgQIAAAQIECBAgUF5AeCxvrAUCBAgQIECAAAECBAhULyA8Vt+FCiBAgAABAgQIECBAgEB5AeGxvLEWCBAgQIAAAQIECBAgUL2A8Fh9FyqAAAECBAgQIECAAAEC5QWEx/LGWiBAgAABAgQIECBAgED1AsJj9V2oAAIECBAgQIAAAQIECJQXEB7LG2uBAAECBAgQIECAAAEC1QsIj9V3oQIIECBAgAABAgQIECBQXkB4LG+sBQIECBAgQIAAAQIECFQvIDxW34UKIECAAAECBAgQIECAQHkB4bG8sRYIECBAgAABAgQIECBQvYDwWH0XKoAAAQIECBAgQIAAAQLlBYTH8sZaIECAAAECBAgQIECAQPUCwmP1XagAAgQIECBAgAABAgQIlBcQHssba4EAAQIECBAgQIAAAQLVCwiP1XehAggQIECAAAECBAgQIFBeQHgsb6wFAgQIECBAgAABAgQIVC8gPFbfhQogQIAAAQIECBAgQIBAeQHhsbyxFggQIECAAAECBAgQIFC9gPBYfRcqgAABAgQIECBAgAABAuUFhMfyxlogQIAAAQIECBAgQIBA9QLCY/VdqAACBAgQIECAAAECBAiUFxAeyxtrgQABAgQIECBAgAABAtULCI/Vd6ECCBAgQIAAAQIECBAgUF5AeCxvrAUCBAgQIECAAAECBAhULyA8Vt+FCiBAgAABAgQIECBAgEB5AeGxvLEWCBAgQIAAAQIECBAgUL2A8Fh9FyqAAAECBAgQIECAAAEC5QWEx/LGWiBAgAABAgQIECBAgED1AsJj9V2oAAIECBAgQIAAAQIECJQXEB7LG2uBAAECBAgQIECAAAEC1QsIj9V3oQIIECBAgAABAgQIECBQXkB4LG+sBQIECBAgQIAAAQIECFQvIDxW34UKIECAAAECBAgQIECAQHkB4bG8sRYIECBAgAABAgQIECBQvYDwWH0XKoAAAQIECBAgQIAAAQLlBYTH8sZaIECAAAECBAgQIECAQPUCwmP1XagAAgQIECBAgAABAgQIlBcQHssba4EAAQIECBAgQIAAAQLVCwiP1XehAggQIECAAAECBAgQIFBeQHgsb6wFAgQIECBAgAABAgQIVC8gPFbfhQogQIAAAQIECBAgQIBAeQHhsbyxFggQIECAAAECBAgQIFC9gPBYfRcqgAABAgQIECBAgAABAuUFhMfyxlogQIAAAQIECBAgQIBA9QLCY/VdqAACBAgQIECAAAECBAiUFxAeyxtrgQABAgQIECBAgAABAtULCI/Vd6ECCBAgQIAAAQIECBAgUF5AeCxvrAUCBAgQIECAAAECBAhULyA8Vt+FCiBAgAABAgQIECBAgEB5AeGxvLEWCBAgQIAAAQIECBAgUL2A8Fh9FyqAAAECBAgQIECAAAEC5QWEx/LGWiBAgAABAgQIECBAgED1AsJj9V2oAAIECBAgQIAAAQIECJQXEB7LG2uBAAECBAgQIECAAAEC1QsIj9V3oQIIECBAgAABAgQIECBQXkB4LG+sBQIECBAgQIAAAQIECFQvIDxW34UKIECAAAECBAgQIECAQHkB4bG8sRYIECBAgAABAgQIECBQvYDwWH0XKoAAAQIECBAgQIAAAQLlBYTH8sZaIECAAAECBAgQIECAQPUCwmP1XagAAgQIECBAgAABAgQIlBcQHssba4EAAQIECBAgQIAAAQLVCwiP1XehAggQIECAAAECBAgQIFBeQHgsb6wFAgQIECBAgAABAgQIVC8gPFbfhQogQIAAAQIECBAgQIBAeQHhsbyxFggQIECAAAECBAgQIFC9gPBYfRcqgAABAgQIECBAgAABAuUFhMfyxlogQIAAAQIECBAgQIBA9QLCY/VdqAACBAgQIECAAAECBAiUFxAeyxtrgQABAgQIECBAgAABAtULCI/Vd6ECCBAgQIAAAQIECBAgUF5AeCxvrAUCBAgQIECAAAECBAhULyA8Vt+FCiBAgAABAgQIECBAgEB5AeGxvLEWCBAgQIAAAQIECBAgUL2A8Fh9FyqAAAECBAgQIECAAAEC5QWEx/LGWiBAgAABAgQIECBAgED1AsJj9V2oAAIECBAgQIAAAQIECJQXEB7LG2uBAAECBAgQIECAAAEC1QsIj9V3oQIIECBAgAABAgQIECBQXkB4LG+sBQIECBAgQIAAAQIECFQvIDxW34UKIECAAAECBAgQIECAQHkB4bG8sRYIECBAgAABAgQIECBQvYDwWH0XKoAAAQIECBAgQIAAAQLlBYTH8sZaIECAAAECBAgQIECAQPUCwmP1XagAAgQIECBAgAABAgQIlBcQHssba4EAAQIECBAgQIAAAQLVCwiP1XehAggQIECAAAECBAgQIFBeQHgsb6wFAgQIECBAgAABAgQIVC8gPFbfhQogQIAAAQIECBAgQIBAeQHhsbyxFggQIECAAAECBAgQIFC9gPBYfRcqgAABAgQIECBAgAABAuUFhMfyxlogQIAAAQIECBAgQIBA9QLCY/VdqAACBAgQIECAAAECBAiUFxAeyxtrgQABAgQIECBAgAABAtULCI/Vd6ECCBAgQIAAAQIECBAgUF5AeCxvrAUCBAgQIECAAAECBAhULyA8Vt+FCiBAgAABAgQIECBAgEB5AeGxvLEWCBAgQIAAAQIECBAgUL2A8Fh9FyqAAAECBAgQIECAAAEC5QWEx/LGWiBAgAABAgQIECBAgED1AsJj9V2oAAIECBAgQIAAAQIECJQXEB7LG2uBAAECBAgQIECAAAEC1QsIj9V3oQIIECBAgAABAgQIECBQXkB4LG+sBQIECBAgQIAAAQIECFQvIDxW34UKIECAAAECBAgQIECAQHkB4bG8sRYIECBAgAABAgQIECBQvYDwWH0XKoAAAQIECBAgQIAAAQLlBYTH8sZaIECAAAECBAgQIECAQPUCwmP1XagAAgQIECBAgAABAgQIlBcQHssba4EAAQIECBAgQIAAAQLVCwiP1XehAggQIECAAAECBAgQIFBeQHgsb6wFAgQIECBAgAABAgQIVC8gPFbfhQogQIAAAQIECBAgQIBAeQHhsbyxFggQIECAAAECBAgQIFC9gPBYfRcqgAABAgQIECBAgAABAuUFhMfyxlogQIAAAQIECBAgQIBA9QLCY/VdqAAC7Wbk7wAAIABJREFUBAgQIECAAAECBAiUFxAeyxtrgQABAgQIECBAgAABAtULCI/Vd6ECCBAgQIAAAQIECBAgUF5AeCxvrAUCBAgQIECAAAECBAhULyA8Vt+FCiBAgAABAgQIECBAgEB5AeGxvLEWCBAgQIAAAQIECBAgUL2A8Fh9FyqAAAECBAgQIECAAAEC5QWEx/LGWiBAgAABAgQIECBAgED1AsJj9V2oAAIECBAgQIAAAQIECJQXEB7LG2uBAAECBAgQIECAAAEC1QsIj9V3oQIIECBAgAABAgQIECBQXkB4LG+sBQIECBAgQIAAAQIECFQvIDxW34UKIECAAAECBAgQIECAQHkB4bG8sRYIECBAgAABAgQIECBQvYDwWH0XKoAAAQIECBAgQIAAAQLlBYTH8sZaIECAAAECBAgQIECAQPUCwmP1XagAAgQIECBAgAABAgQIlBcQHssba4EAAQIECBAgQIAAAQLVCwiP1XehAggQIECAAAECBAgQIFBeQHgsb6wFAgQIECBAgAABAgQIVC8gPFbfhQogQIAAAQIECBAgQIBAeQHhsbyxFggQIECAAAECBAgQIFC9gPBYfRcqgAABAgQIECBAgAABAuUFhMfyxlogQIAAAQIECBAgQIBA9QLCY/VdqAACBAgQIECAAAECBAiUFxAeyxtrgQABAgQIECBAgAABAtULCI/Vd6ECCBAgQIAAAQIECBAgUF5AeCxvrAUCBAgQIECAAAECBAhULyA8Vt+FCiBAgAABAgQIECBAgEB5AeGxvLEWCBAgQIAAAQIECBAgUL2A8Fh9FyqAAAECBAgQIECAAAEC5QWEx/LGWiBAgAABAgQIECBAgED1AsJj9V2oAAIECBAgQIAAAQIECJQXEB7LG2uBAAECBAgQIECAAAEC1QsIj9V3oQIIECBAgAABAgQIECBQXkB4LG+sBQIECBAgQIAAAQIECFQvIDxW34UKIECAAAECBAgQIECAQHkB4bG8sRYIECBAgAABAgQIECBQvYDwWH0XKoAAAQIECBAgQIAAAQLlBYTH8sZaIECAAAECBAgQIECAQPUCwmP1XagAAgQIECBAgAABAgQIlBcQHssba4EAAQIECBAgQIAAAQLVCwiP1XehAggQIECAAAECBAgQIFBeQHgsb6wFAgQIECBAgAABAgQIVC8gPFbfhQogQIAAAQIECBAgQIBAeQHhsbyxFggQIECAAAECBAgQIFC9gPBYfRcqgAABAgQIECBAgAABAuUFhMfyxlogQIAAAQIECBAgQIBA9QLCY/VdqAACBAgQIECAAAECBAiUFxAeyxtrgQABAgQIECBAgAABAtULCI/Vd6ECCBAgQIAAAQIECBAgUF5AeCxvrAUCBAgQIECAAAECBAhULyA8Vt+FCiBAgAABAgQIECBAgEB5AeGxvLEWCBAgQIAAAQIECBAgUL2A8Fh9FyqAAAECBAgQIECAAAEC5QWEx/LGWiBAgAABAgQIECBAgED1AsJj9V2oAAIECBAgQIAAAQIECJQXEB7LG2uBAAECBAgQIECAAAEC1QsIj9V3oQIIECBAgAABAgQIECBQXkB4LG+sBQIECBAgQIAAAQIECFQvIDxW34UKIECAAAECBAgQIECAQHkB4bG8sRYIECBAgAABAgQIECBQvYDwWH0XKoAAAQIECBAgQIAAAQLlBYTH8sZaIECAAAECBAgQIECAQPUCwmP1XagAAgQIECBAgAABAgQIlBcQHssba4EAAQIECBAgQIAAAQLVCwiP1XehAggQIECAAAECBAgQIFBeQHgsb6wFAgQIECBAgAABAgQIVC8gPFbfhQogQIAAAQIECBAgQIBAeQHhsbyxFggQIECAAAECBAgQIFC9gPBYfRcqgAABAgQIECBAgAABAuUFhMfyxlogQIAAAQIECBAgQIBA9QLCY/VdqAACBAgQIECAAAECBAiUFxAeyxtrgQABAgQIECBAgAABAtULCI/Vd6ECCBAgQIAAAQIECBAgUF5AeCxvrAUCBAgQIECAAAECBAhULyA8Vt+FCiBAgAABAgQIECBAgEB5AeGxvLEWCBAgQIAAAQIECBAgUL2A8Fh9FyqAAAECBAgQIECAAAEC5QWEx/LGWiBAgAABAgQIECBAgED1AsJj9V2oAAIECBAgQIAAAQIECJQXEB7LG2uBAAECBAgQIECAAAEC1QsIj9V3oQIIECBAgAABAgQIECBQXkB4LG+sBQIECBAgQIAAAQIECFQvIDxW34UKIECAAAECBAgQIECAQHkB4bG8sRYIECBAgAABAgQIECBQvYDwWH0XKoAAAQIECBAgQIAAAQLlBYTH8sZaIECAAAECBAgQIECAQPUCwmP1XagAAgQIECBAgAABAgQIlBcQHssba4EAAQIECBAgQIAAAQLVCwiP1XehAggQIECAAAECBAgQIFBeQHgsb6wFAgQIECBAgAABAgQIVC8gPFbfhQogQIAAAQIECBAgQIBAeQHhsbyxFggQIECAAAECBAgQIFC9gPBYfRcqgAABAgQIECBAgAABAuUFhMfyxlogQIAAAQIECBAgQIBA9QLCY/VdqAACBAgQIECAAAECBAiUFxAeyxtrgQABAgQIECBAgAABAtULCI/Vd6ECCBAgQIAAAQIECBAgUF5AeCxvrAUCBAgQIECAAAECBAhULyA8Vt+FCiBAgAABAgQIECBAgEB5AeGxvLEWCBAgQIAAAQIECBAgUL2A8Fh9FyqAAAECBAgQIECAAAEC5QWEx/LGWiBAgAABAgQIECBAgED1AsJj9V2oAAIECBAgQIAAAQIECJQXEB7LG2uBAAECBAgQIECAAAEC1QsIj9V3oQIIECBAgAABAgQIECBQXkB4LG+sBQIECBAgQIAAAQIECFQvIDxW34UKIECAAAECBAgQIECAQHkB4bG8sRYIECBAgAABAgQIECBQvYDwWH0XKoAAAQIECBAgQIAAAQLlBYTH8sZaIECAAAECBAgQIECAQPUCwmP1XagAAgQIECBAgAABAgQIlBcQHssba4EAAQIECBAgQIAAAQLVCwiP1XehAggQIECAAAECBAgQIFBeQHgsb6wFAgQIECBAgAABAgQIVC8gPFbfhQogQIAAAQIECBAgQIBAeQHhsbyxFggQIECAAAECBAgQIFC9gPBYfRcqgAABAgQIECBAgAABAuUFhMfyxlogQIAAAQIECBAgQIBA9QLCY/VdqAACBAgQIECAAAECBAiUFxAeyxtrgQABAgQIECBAgAABAtULCI/Vd6ECCBAgQIAAAQIECBAgUF5AeCxvrAUCBAgQIECAAAECBAhULyA8Vt+FCiBAgAABAgQIECBAgEB5AeGxvLEWCBAgQIAAAQIECBAgUL2A8Fh9FyqAAAECBAgQIECAAAEC5QWEx/LGWiBAgAABAgQIECBAgED1AsJj9V2oAAIECBAgQIAAAQIECJQXEB7LG2uBAAECBAgQIECAAAEC1QsIj9V3oQIIECBAgAABAgQIECBQXkB4LG+sBQIECBAgQIAAAQIECFQvIDxW34UKIECAAAECBAgQIECAQHkB4bG8sRYIECBAgAABAgQIECBQvYDwWH0XKoAAAQIECBAgQIAAAQLlBYTH8sZaIECAAAECBAgQIECAQPUCwmP1XagAAgQIECBAgAABAgQIlBcQHssba4EAAQIECBAgQIAAAQLVCwiP1XehAggQIECAAAECBAgQIFBeQHgsb6wFAgQIECBAgAABAgQIVC8gPFbfhQogQIAAAQIECBAgQIBAeQHhsbyxFggQIECAAAECBAgQIFC9gPBYfRcqgAABAgQIECBAgAABAuUFhMfyxlogQIAAAQIECBAgQIBA9QLCY/VdqAACBAgQIECAAAECBAiUFxAeyxtrgQABAgQIECBAgAABAtULCI/Vd6ECCBAgQIAAAQIECBAgUF5AeCxvrAUCBAgQIECAAAECBAhULyA8Vt+FCiBAgAABAgQIECBAgEB5AeGxvLEWCBAgQIAAAQIECBAgUL2A8Fh9FyqAAAECBAgQIECAAAEC5QWEx/LGWiBAgAABAgQIECBAgED1AsJj9V2oAAIECBAgQIAAAQIECJQXEB7LG2uBAAECBAgQIECAAAEC1QsIj9V3oQIIECBAgAABAgQIECBQXkB4LG+sBQIECBAgQIAAAQIECFQvIDxW34UKIECAAAECBAgQIECAQHkB4bG8sRYIECBAgAABAgQIECBQvYDwWH0XKoAAAQIECBAgQIAAAQLlBYTH8sZaIECAAAECBAgQIECAQPUCwmP1XagAAgQIECBAgAABAgQIlBcQHssba4EAAQIECBAgQIAAAQLVCwiP1XehAggQIECAAAECBAgQIFBeQHgsb6wFAgQIECBAgAABAgQIVC8gPFbfhQogQIAAAQIECBAgQIBAeQHhsbyxFggQIECAAAECBAgQIFC9gPBYfRcqgAABAgQIECBAgAABAuUFhMfyxlogQIAAAQIECBAgQIBA9QLCY/VdqAACBAgQIECAAAECBAiUFxAeyxtrgQABAgQIECBAgAABAtULCI/Vd6ECCBAgQIAAAQIECBAgUF5AeCxvrAUCBAgQIECAAAECBAhULyA8Vt+FCiBAgAABAgQIECBAgEB5AeGxvLEWCBAgQIAAAQIECBAgUL2A8Fh9FyqAAAECBAgQIECAAAEC5QWEx/LGWiBAgAABAgQIECBAgED1AsJj9V2oAAIECBAgQIAAAQIECJQXEB7LG2uBAAECBAgQIECAAAEC1QsIj9V3oQIIECBAgAABAgQIECBQXkB4LG+sBQIECBAgQIAAAQIECFQvIDxW34UKIECAAAECBAgQIECAQHkB4bG8sRYIECBAgAABAgQIECBQvYDwWH0XKoAAAQIECBAgQIAAAQLlBYTH8sZaIECAAAECBAgQIECAQPUCwmP1XagAAgQIECBAgAABAgQIlBcQHssba4EAAQIECBAgQIAAAQLVCwiP1XehAggQIECAAAECBAgQIFBeQHgsb6wFAgQIECBAgAABAgQIVC8gPFbfhQogQIAAAQIECBAgQIBAeQHhsbyxFggQIECAAAECBAgQIFC9gPBYfRcqgAABAgQIECBAgAABAuUFhMfyxlogQIAAAQIECBAgQIBA9QLCY/VdqAACBAgQIECAAAECBAiUFxAeyxtrgQABAgQIECBAgAABAtULCI/Vd6ECCBAgQIAAAQIECBAgUF5AeCxvrAUCBAgQIECAAAECBAhULyA8Vt+FCiBAgAABAgQIECBAgEB5AeGxvLEWCBAgQIAAAQIECBAgUL2A8Fh9FyqAAAECBAgQIECAAAEC5QWEx/LGWiBAgAABAgQIECBAgED1AsJj9V2oAAIECBAgQIAAAQIECJQXEB7LG2uBAAECBAgQIECAAAEC1QsIj9V3oQIIECBAgAABAgQIECBQXkB4LG+sBQIECBAgQIAAAQIECFQvIDxW34UKIECAAAECBAgQIECAQHkB4bG8sRYIECBAgAABAgQIECBQvYDwWH0XKoAAAQIECBAgQIAAAQLlBYTH8sZaIECAAAECBAgQIECAQPUCwmP1XagAAgQIECBAgAABAgQIlBcQHssba4EAAQIECBAgQIAAAQLVCwiP1XehAggQIECAAAECBAgQIFBeQHgsb6wFAgQIECBAgAABAgQIVC8gPFbfhQogQIAAAQIECBAgQIBAeQHhsbyxFggQIECAAAECBAgQIFC9gPBYfRcqgAABAgQIECBAgAABAuUFhMfyxlogQIAAAQIECBAgQIBA9QLCY/VdqAACBAgQIECAAAECBAiUFxAeyxtrgQABAgQIECBAgAABAtULCI/Vd6ECCBAgQIAAAQIECBAgUF5AeCxvrAUCBAgQIECAAAECBAhULyA8Vt+FCiBAgAABAgQIECBAgEB5AeGxvLEWCBAgQIAAAQIECBAgUL2A8Fh9FyqAAAECBAgQIECAAAEC5QWEx/LGWiBAgAABAgQIECBAgED1AsJj9V2oAAIECBAgQIAAAQIECJQXEB7LG2uBAAECBAgQIECAAAEC1QsIj9V3oQIIECBAgAABAgQIECBQXkB4LG+sBQIECBAgQIAAAQIECFQvIDxW34UKIECAAAECBAgQIECAQHkB4bG8sRYIECBAgAABAgQIECBQvYDwWH0XKoAAAQIECBAgQIAAAQLlBYTH8sZaIECAAAECBAgQIECAQPUCwmP1XagAAgQIECBAgAABAgQIlBcQHssba4EAAQIECBAgQIAAAQLVCwiP1XehAggQIECAAAECBAgQIFBeQHgsb6wFAgQIECBAgAABAgQIVC8gPFbfhQogQIAAAQIECBAgQIBAeQHhsbyxFggQIECAAAECBAgQIFC9gPBYfRcqgAABAgQIECBAgAABAuUFhMfyxlogQIAAAQIECBAgQIBA9QLCY/VdqAACBAgQIECAAAECBAiUFxAeyxtrgQABAgQIECBAgAABAtULCI/Vd6ECCBAgQIAAAQIECBAgUF5AeCxvrAUCBAgQIECAAAECBAhULyA8Vt+FCiBAgAABAgQIECBAgEB5AeGxvLEWCBAgQIAAAQIECBAgUL2A8Fh9FyqAAAECBAgQIECAAAEC5QWEx/LGWiBAgAABAgQIECBAgED1AsJj9V2oAAIECBAgQIAAAQIECJQXEB7LG2uBAAECBAgQIECAAAEC1QsIj9V3oQIIECBAgAABAgQIECBQXkB4LG+sBQIECBAgQIAAAQIECFQvIDxW34UKIECAAAECBAgQIECAQHkB4bG8sRYIECBAgAABAgQIECBQvYDwWH0XKoAAAQIECBAgQIAAAQLlBYTH8sZaIECAAAECBAgQIECAQPUCwmP1XagAAgQIECBAgAABAgQIlBcQHssba4EAAQIECBAgQIAAAQLVCwiP1XehAggQIECAAAECBAgQIFBeQHgsb6wFAgQIECBAgAABAgQIVC8gPFbfhQogQIAAAQIECBAgQIBAeQHhsbyxFggQIECAAAECBAgQIFC9gPBYfRcqgAABAgQIECBAgAABAuUFhMfyxlogQIAAAQIECBAgQIBA9QLCY/VdqAACBAgQIECAAAECBAiUFxAeyxtrgQABAgQIECBAgAABAtULCI/Vd6ECCBAgQIAAAQIECBAgUF5AeCxvrAUCBAgQIECAAAECBAhULyA8Vt+FCiBAgAABAgQIECBAgEB5AeGxvLEWCBAgQIAAAQIECBAgUL2A8Fh9FyqAAAECBAgQIECAAAEC5QWEx/LGWiBAgAABAgQIECBAgED1AsJj9V2oAAIECBAgQIAAAQIECJQXEB7LG2uBAAECBAgQIECAAAEC1QsIj9V3oQIIECBAgAABAgQIECBQXkB4LG+sBQIECBAgQIAAAQIECFQvIDxW34UKIECAAAECBAgQIECAQHkB4bG8sRYIECBAgAABAgQIECBQvYDwWH0XKoAAAQIECBAgQIAAAQLlBYTH8sZaIECAAAECBAgQIECAQPUCwmP1XagAAgQIECBAgAABAgQIlBcQHssba4EAAQIECBAgQIAAAQLVCwiP1XehAggQIECAAAECBAgQIFBeQHgsb6wFAgQIECBAgAABAgQIVC8gPFbfhQogQIAAAQIECBAgQIBAeQHhsbyxFggQIECAAAECBAgQIFC9gPBYfRcqgAABAgQIECBAgAABAuUFhMfyxlogQIAAAQIECBAgQIBA9QLCY/VdqAACBAgQIECAAAECBAiUFxAeyxtrgQABAgQIECBAgAABAtULCI/Vd6ECCBAgQIAAAQIECBAgUF5AeCxvrAUCBAgQIECAAAECBAhULyA8Vt+FCiBAgAABAgQIECBAgEB5AeGxvLEWCBAgQIAAAQIECBAgUL2A8Fh9FyqAAAECBAgQIECAAAEC5QWEx/LGWiBAgAABAgQIECBAgED1AsJj9V2oAAIECBAgQIAAAQIECJQXEB7LG2uBAAECBAgQIECAAAEC1QsIj9V3oQIIECBAgAABAgQIECBQXkB4LG+sBQIECBAgQIAAAQIECFQvIDxW34UKIECAAAECBAgQIECAQHkB4bG8sRYIECBAgAABAgQIECBQvYDwWH0XKoAAAQIECBAgQIAAAQLlBYTH8sZaIECAAAECBAgQIECAQPUCwmP1XagAAgQIECBAgAABAgQIlBcQHssba4EAAQIECBAgQIAAAQLVCwiP1XehAggQIECAAAECBAgQIFBeQHgsb6wFAgQIECBAgAABAgQIVC8gPFbfhQogQIAAAQIECBAgQIBAeQHhsbyxFggQIECAAAECBAgQIFC9gPBYfRcqgAABAgQIECBAgAABAuUFhMfyxlogQIAAAQIECBAgQIBA9QLCY/VdqAACBAgQIECAAAECBAiUFxAeyxtrgQABAgQIECBAgAABAtULCI/Vd6ECCBAgQIAAAQIECBAgUF5AeCxvrAUCBAgQIECAAAECBAhULyA8Vt+FCiBAgAABAgQIECBAgEB5AeGxvLEWCBAgQIAAAQIECBAgUL2A8Fh9FyqAAAECBAgQIECAAAEC5QWEx/LGWiBAgAABAgQIECBAgED1AsJj9V2oAAIECBAgQIAAAQIECJQXEB7LG2uBAAECBAgQIECAAAEC1QsIj9V3oQIIECBAgAABAgQIECBQXkB4LG+sBQIECBAgQIAAAQIECFQvIDxW34UKIECAAAECBAgQIECAQHkB4bG8sRYIECBAgAABAgQIECBQvYDwWH0XKoAAAQIECBAgQIAAAQLlBYTH8sZaIECAAAECBAgQIECAQPUCwmP1XagAAgQIECBAgAABAgQIlBcQHssba4EAAQIECBAgQIAAAQLVCwiP1XehAggQIECAAAECBAgQIFBeQHgsb6wFAgQIECBAgAABAgQIVC8gPFbfhQogQIAAAQIECBAgQIBAeQHhsbyxFggQIECAAAECBAgQIFC9gPBYfRcqgAABAgQIECBAgAABAuUFhMfyxlogQIAAAQIECBAgQIBA9QLCY/VdqAACBAgQIECAAAECBAiUFxAeyxtrgQABAgQIECBAgAABAtULCI/Vd6ECCBAgQIAAAQIECBAgUF5AeCxvrAUCBAgQIECAAAECBAhULyA8Vt+FCiBAgAABAgQIECBAgEB5AeGxvLEWCBAgQIAAAQIECBAgUL2A8Fh9FyqAAAECBAgQIECAAAEC5QWEx/LGWiBAgAABAgQIECBAgED1AsJj9V2oAAIECBAgQIAAAQIECJQXEB7LG2uBAAECBAgQIECAAAEC1QsIj9V3oQIIECBAgAABAgQIECBQXkB4LG+sBQIECBAgQIAAAQIECFQvIDxW34UKIECAAAECBAgQIECAQHkB4bG8sRYIECBAgAABAgQIECBQvYDwWH0XKoAAAQIECBAgQIAAAQLlBYTH8sZaIECAAAECBAgQIECAQPUCwmP1XagAAgQIECBAgAABAgQIlBcQHssba4EAAQIECBAgQIAAAQLVCwiP1XehAggQIECAAAECBAgQIFBeQHgsb6wFAgQIECBAgAABAgQIVC8gPFbfhQogQIAAAQIECBAgQIBAeQHhsbyxFggQIECAAAECBAgQIFC9gPBYfRcqgAABAgQIECBAgAABAuUFhMfyxlogQIAAAQIECBAgQIBA9QLCY/VdqAACBAgQIECAAAECBAiUFxAeyxtrgQABAgQIECBAgAABAtULCI/Vd6ECCBAgQIAAAQIECBAgUF5AeCxvrAUCBAgQIECAAAECBAhULyA8Vt+FCiBAgAABAgQIECBAgEB5AeGxvLEWCBAgQIAAAQIECBAgUL2A8Fh9FyqAAAECBAgQIECAAAEC5QWEx/LGWiBAgAABAgQIECBAgED1AsJj9V2oAAIECBAgQIAAAQIECJQXEB7LG2uBAAECBAgQIECAAAEC1QsIj9V3oQIIECBAgAABAgQIECBQXkB4LG+sBQIECBAgQIAAAQIECFQvIDxW34UKIECAAAECBAgQIECAQHkB4bG8sRYIECBAgAABAgQIECBQvYDwWH0XKoAAAQIECBAgQIAAAQLlBYTH8sZaIECAAAECBAgQIECAQPUCwmP1XagAAgQIECBAgAABAgQIlBcQHssba4EAAQIECBAgQIAAAQLVCwiP1XehAggQIECAAAECBAgQIFBeQHgsb6wFAgQIECBAgAABAgQIVC8gPFbfhQogQIAAAQIECBAgQIBAeQHhsbyxFggQIECAAAECBAgQIFC9gPBYfRcqgAABAgQIECBAgAABAuUFhMfyxlogQIAAAQIECBAgQIBA9QLCY/VdqAACBAgQIECAAAECBAiUFxAeyxtrgQABAgQIECBAgAABAtULCI/Vd6ECCBAgQIAAAQIECBAgUF5AeCxvrAUCBAgQIECAAAECBAhULyA8Vt+FCiBAgAABAgQIECBAgEB5AeGxvLEWCBAgQIAAAQIECBAgUL2A8Fh9FyqAAAECBAgQIECAAAEC5QWEx/LGWiBAgAABAgQIECBAgED1AsJj9V2oAAIECBAgQIAAAQIECJQXEB7LG2uBAAECBAgQIECAAAEC1QsIj9V3oQIIECBAgAABAgQIECBQXkB4LG+sBQIECBAgQIAAAQIECFQvIDxW34UKIECAAAECBAgQIECAQHkB4bG8sRYIECBAgAABAgQIECBQvYDwWH0XKoAAAQIECBAgQIAAAQLlBYTH8sZaIECAAAECBAgQIECAQPUCwmP1XagAAgQIECBAgAABAgQIlBcQHssba4EAAQIECBAgQIAAAQLVCwiP1XehAggQIECAAAECBAgQIFBeQHgsb6wFAgQIECBAgAABAgQIVC8gPFbfhQogQIAAAQIECBAgQIBAeQHhsbyxFggQIECAAAECBAgQIFC9gPBYfRcqgAABAgQIECBAgAABAuUFhMfyxlogQIC69zQSAAAgAElEQVQAAQIECBAgQIBA9QLCY/VdqAACBAgQIECAAAECBAiUFxAeyxtrgQABAgQIECBAgAABAtULCI/Vd6ECCBAgQIAAAQIECBAgUF5AeCxvrAUCBAgQIECAAAECBAhULyA8Vt+FCiBAgAABAgQIECBAgEB5AeGxvLEWCBAgQIAAAQIECBAgUL2A8Fh9FyqAAAECBAgQIECAAAEC5QXWwmP5prRAgAABAgQIECBAgAABAjULPKVpmh07duyouQbrTmBNII6IGM8GBAECBAgQWE4B++nl7BdrRWAeAaetzqPkNVUJ2ClV1V1WlgABAgQmJmA/PbEOV+5KCQiPK9WdigkBOyXjgAABAgQILK+A/fTy9o01IzBLQHicJeTv1QnYKVXXZVaYAAECBCYkYD89oc5W6soJCI8r16UKslMyBggQIECAwPIK2E8vb99YMwKzBITHWUL+Xp2AnVJ1XWaFCRAgQGBCAvbTE+pspa6cgPC4cl2qIDslY4AAAQIECCyvgP308vaNNSMwS0B4nCXk79UJ2ClV12VWmAABAgQmJGA/PaHOVurKCQiPK9elCrJTMgYIECBAgMDyCthPL2/fWDMCswTmCo8PPvhgc8wxxzSHHHJIc80116xb5jvf+c7mzjvvbK6//vpmjz32aP/2+OOPNyeeeGJz6623rr32tNNOW/fetMy777573fL233//5sYbb2wOPfTQwWXlb/jYxz7WHH300bPq9PcJCcyzU3r961/fXHvttb0qaQw+8sgjzeWXX97EGHvooYeaV7/61c3999/f+54Y3/HaGPfxur4xOTTmY4HdcT+h7lIqAQIECExMoG8/Hd8n3/ve9677Dhgsad95/vnnt/vWeN0DDzyw0/fRvtfdcsst7T5833333Uk4lpP+vvvuu+/0vTW9If+e+fGPf7z9Ptz387KXvaz9LvzEE0+0r+l+v433dL8LT6zblbsiApsKj7EhdMNaNzzedddd7ZfnI488ct2GHV/Wv/zlL69txLGRn3zyyc0ll1yyFhTDNDbM8847b+3DIwXRoS/kK9IPyhhRYJ7wmDcXYy4OWOQHQNJYTOEx3/EMjclZY3VozI9YukURIECAAIGlFxgKj/H9L4WwNCGxK+Hxox/9aHPAAQc0V1999doER9q/R8B7wQte0H4vTeGx+12z+5106PtCDj60r091HHvssc2555679H1kBQkMCcwdHiPo7bXXXs0//dM/rTuKk4fHaCRmXg477LDeDSMCZPzE7OVGX6T7ljkrPPbNgOr2aQrUHB5TAB3ahqbZo6omQIAAgVUSGAqPcSbbww8/3OQBa1fCYywvvruecMIJ6yYq0vfRNKkxFB6731V3JTxG//muukqjeLq1bCo8xpGSCH6xIabTV/MN4b777mvOOuus5qqrrlq3kSbemJW8+OKLm+uuu679Vd/MY/w+f93QBj3dLlP5LIGaw+Os2vydAAECBAjULjAUHuN01DhzLT8DbVfDY5zq+uijj65NasTy4rvqS17ykuZDH/rQzJnH2267be07r/BY+8iz/mMIbCo8ximm8ROzgFdcccXauefpmsfbb7997RqxvvPL8yM4++yzz2B4zF934IEHDp6Hnk436GtrDBzLqFNgmcPj0HUQ3dN06pS31gQIECBAYLbARuExJidiZjACX34N4VaueYzvp5dddll72mpchhKnwkYAjEAYITVdmrLRNY/5/nmjax7je3FMsjhtdXb/e0XdApsOj3Ejm/wi45tvvnnthjklw+Os01br7gZrP6bAMofHodn2Meu3LAIECBAgsMwCs8Jjfn3g8ccf396AZqvhMQLopZde2i4jvsNGMI3gGD/d8Nj9rpnu45EmTOadeRw6UJwC5jL3jXUjMEtgS+ExXZcVp6/ut99+a+HRaauzuP19EQLC4yKUtUGAAAECBLYmMCs8xlLTzWoicEXI25XwGJMbMdt4wQUXrF1eFTeBnBUeYz3y+3XMGx67B4q7N43cmpp3EVgOgS2Fx1j1dDTm537u55qnP/3p7akF8bNdN8xZDk5rsQwCwuMy9IJ1IECAAAEC/QLzhMcU3P7u7/6u+Y//+I+1y6WGAlx8L83vu5HfkyMen5Guc/za177WXsMYy5k3PMZESZySutXwmCZdoqbund2NEQK1CWw5PEahsWF2b6vsUR21DYHVW1/hcfX6VEUECBAgsDoC84bH/PnI6VFxQ4+8yK+TjGsbu3c2Tc93TsuZJzx2A+lWw2M+6dJ9lN3q9KpKpiKwS+Fx6EhK+v2tt9665th9MOrQA9O7N8HpW1beOWm5bn88lSE7u87tDo/5uE9rGzurGNtD10HE6+LUnFNOOWXD2fvZ1XsFAQIECBBYboF5w2NUkW5Skz9nfJ7vmd3vhXlYjBst9oXHof133LE1X5c+3f333799ZvRGN4RMtbj2cbnHp7XbWGCu8AiRQE0Cmw2PNdVmXQkQIECAQO0C9tO196D1n7KA8Djl3l/R2u2UVrRjlUWAAAECKyFgP70S3aiIiQoIjxPt+FUu205plXtXbQQIECBQu4D9dO09aP2nLCA8Trn3V7R2O6UV7VhlESBAgMBKCNhPr0Q3KmKiAsLjRDt+lcu2U1rl3lUbAQIECNQuYD9dew9a/ykLCI9T7v0Vrd1OaUU7VlkECBAgsBIC9tMr0Y2KmKiA8DjRjl/lsu2UVrl31UaAAAECtQvYT9feg9Z/ygLC45R7f0Vrt1Na0Y5VFgECBAishID99Ep0oyImKiA8TrTjV7lsO6VV7l21ESBAgEDtAvbTtfeg9Z+ygPA45d5f0drtlFa0Y5VFgAABAishYD+9Et2oiIkKCI8T7fhVLttOaZV7V20ECBAgULuA/XTtPWj9pywgPE6591e0djulFe1YZREgQIDASgjYT69ENypiogLC40Q7fpXLtlNa5d5VGwECBAjULmA/XXsPWv8pCwiPU+79Fa3dTmlFO1ZZBAgQILASAvbTK9GNipiogPA40Y5f5bLtlFa5d9VGgAABArUL2E/X3oPWf8oCwuOUe39Fa7dTWtGOVRYBAgQIrISA/fRKdKMiJiogPE6041e5bDulVe5dtREgQIBA7QL207X3oPWfsoDwOOXeX9Ha7ZRWtGOVRYAAAQIrIWA/vRLdqIiJCgiPE+34VS7bTmmVe1dtBAgQIFC7gP107T1o/acsIDxOufdXtHY7pRXtWGURIECAwEoI2E+vRDcqYqICwuNEO36Vy7ZTWuXeVRsBAgQI1C5gP117D1r/KQsIj1Pu/RWt3U5p8x37+OOPNyeeeGJz7733NjfeeGNz6KGHbn4h3tEr8PrXv7659tprmyuuuKI5/PDDm1e/+tXt62Y5p/d97GMfa44++mi6BAgsgcA73/nO5rzzzmtOO+205oILLmiOOeaY5u67725sp5vrHPvpzXl5NYFlEhAel6k3rMsoAnZKm2cUHjdvNu87hMd5pbyOwPILCI/j9JH99DiOlkJgOwSExxHVv/KVrzSvfOUrm69//evNu9/97uaMM84YXPo999zTvvYf//Efe18TsxTnnnvuiGs3nUXZKc3X10888URzww03NJ/4xCea++67r3n00UfbN+62227Ns5/97OZXf/VXm9e+9rXNc57znPkW6FW9Anl4/PVf//XmVa96VfODH/xgp5nH//7v/277ImYkYwb4wQcfXFvegQce2M4Gv+Y1r2lnL2OM+yFAYPECeXh8y1ve0hx77LHNXXfdZeZxk11hP71JMC8nsEQCwuOInRE7lQh9T33qU9sv3PElcM899+xt4c///M/b8LjXXns1z3jGM3Z6zcknn9zEl04/mxewU5pt9ulPf7p505ve1PzDP/xD8/M///PNL/3SL7X/jgB5xBFHNP/yL//SBsof+qEfag+CXHTRRc2P/uiPzl6wV+wkcPnllzdvfvObm2uuuaZ56Utf2n7Z/N///d/2y+a+++7bvj4OJp111lnN5z//+fZ3v/zLv9w8/PDDzRe/+MXmqKOOar7zne80cXAqQufv/u7vtp8zQ58tuoAAgXICH/3oR9ttMD4/L7744uakk05qvvrVr848Db3cGtW5ZPvpOvvNWhMIAeFxpHHw2GOPtdcyff/732+//MWX85jVedGLXtTbwrve9a52x/PhD3+4+Z3f+Z2R1sJi0qDesWMHjAGBO+64o/m93/u9NpD8/u//fnuQ4r/+6792uuYxvhDFtT233XZb+98IQd/85jebV7ziFc2///u/t2P34IMPXtfKk08+2cSBj6997Wvt33/qp36qvSZo7733bq6//vpmjz32WHt936myMdvWfX3MyL3tbW9r3v/+9ze/8iu/0i4ngm1sb3GQZmi5Eb7ygBZ1Ri3daw1j+fG3D33oQ+11TBHy4ifG0O2339780R/9URNmsb7dn3nOEIgvmzGDGx6/8Ru/0X7ZjBCY1vsb3/jG2hfQ008/vbnwwgub3XffvV2nuFYyXUsVgT4+M2666ab2wNN73/ve5sd//MfXVinsr7vuuvbvKfg///nPb/v6uOOOaw8EpJ840BXv/+AHP9jOcr7vfe9r/3vAAQe0/uecc07zEz/xE2uvj5mV8L7//vvbYBs1/ezP/uw6jn/7t39r2/nSl77UvOAFL1izT+898sgj12zTG8M3xssP//APr/VLGgOHHHJI84Y3vKG57LLLmr/4i79o3xKzrmeffXZ7gKM7+7rZ+mNMd3/iQMpv//Zvt30QYzf/ie0h3KK+6LOYoY8Z4ZhJjhryvhgaa7G8NHOVj53Njs20XtFnMUY++clPtjPVsf5xfez555+/rv82+jAMtxjzMRbirJnYf7385S/vXcauGsRB05it+8///M92//jxj3+8ufLKK9v2Y9vr/lx99dXNmWeeuXYmT9omNqqne+1hbDexv/3Upz7V9lvUF2dVxJk9z33uc9ctqq8f8nWOz47/+7//a0444YT2oNob3/jGdv3+9m//dt1njZ3PbAHhcbaRVxBYVgHhcaSeiZ13fIGIm4688IUvbP8dp5jFF4W+U8xiJ/XZz362/aIXX7T8jCdgpzRs+f/aO3dXS4quD+9ARAQjRVFEvASDKIqJggYaiDcEDQz8A0RDwX/AGygDoihoZGLiBQ1GGCcQQUU0E0PxgogI4gUMFARB5uWp71uHmjrd+1Z7z6mufhpeeJ2zu7vqWdVd61dr1eoQbCdOnEhiEAcaXmN7Hr/++uskVBCLOHu33357crpeeOGFQYcvUrcReYiTX3/9tVo8njp1KokvxARpnwgsInW7Eo9xfaKuuXjECcVB/Oeff5Lou+KKKw7A4mR/+OGHKQK4Kr38888/T07mq6++mp51nE0ijzjM//77bxJqOMn068UXXzyI8A4VzPntt9/SewUxy/kIF46ff/45tfX9999Pgvq2225L1/7kk08WP/zwQ4pq0taIHvNeQnTceuutiw8++CBFnklVRhhR/IP+IigRIxwhAFkk40DIIzLzA168//7++++1xCOi5bHHHkui+pprrjkkHhFvpFazYIHdWeCgrRyIaJjGu3Wb/jP2iQJfeuml6Zq0+4svvkgCqhTn77zzThKtHHfeeWeK+sLi008/TaKNvx0/fnxx7rnnpt/sSjyOjU3uwTNM9ItnjJTma6+9dsHziq0QRSyGhP3G3ggsnMDhlVdeSTbjGWPhBw6wwc6x4FPLADsyXv/8888k/rE9Yg4hxsLC66+/vjj//PMPmhoLUd9+++3i7bffXhw7dixxfe+99xb33nvvIXHM2CVSn4tHBOMTTzyRno9g9NNPPy0+/vjjlCHEwhBRxDhKuw21mYUOFkkQwSz8IkzJGCgXsXY3o/V5JefpPu1qr+ZBQPG4AzsTocCBfOONN9LKP5MwK7d//fXX4s0330xOWX4Q8cEBxDF66623Uuqqx+4IOCmNs0QY4MDhpIVDxq/HxCNjG1Hy2muvLZ5//vkUjWDRA4cPgcJ4zyMuiJJnnnnmQNgMRRKjdetEHnHwiD7hQPIsEcHkCDFTG3lEALDQg+jiCPFIZOSRRx5JkcqXX345RVvzYyh6tM0IJjqKk45DW2YqjFVbjXs/+uijSQCS7UAEGUcYW7EoEDYJUUWED/EYqfBxDd49RHWJhvLc4LBjY8RsRJv59+CNGEGsIKC4RhwxTlhEQ2xfddVVKyOP2PPxxx9f/PHHH4PikbH6wAMPpLZcfvnl6VaINWx0zjnnJF433XRTEsnb9r+MUoU4J6IX9sBG2J+/IaaIfsbx3XffpXc5fc6fp12Ix7Gxyb1ZEOAZJBKc2w87EMl7+umnE7syOl2OUXhyHSKozF8XX3xxehcQrUZ4RWbMLhiwUMo8yaIE6dsc2J73EVFr7kWkPI4YcyxksPCCMF/GtXxefvzxx2Qb3h0wYU6OxYYQlfk44r7l9YfavM1z7jmHCThPOyokMF0Ciscd2I7JCefiggsuOBCDzz77bFodHyqcw6T20EMPpRVv0sROnjyZVrvHUsZ20MRZXcJJadzcpIkRMWLFHGcx9tsuq7aaF4gg2hUp2jiwucMX12C1PtIaa8VjpKfiBLLvsnQsa8Uj/cH55nlEJIZ4DFGHMCHSceWVV+5FPIaDjB3K+4yJx7Dhgw8+mKIdvE+IlHENBM/VV199RltDIBCZwhm+6KKLDlInEcjhmMdJ8T4jzTXsmDvyRE25Z77wFecQwST6zBEpw0NpqxHRIT0X4YUIinTiGDOI1Ih25x2Kd2tEfaP42Db9H/q8QsmdCDPilCgtQjbPJBl7bnYhHsfGJiwinXPIfhGxIwo3xC9nSaSbdFX6h4iMIxjwdyK8tQwQp0SleZ7KWgBjc2UsRDHGI8q9iXhkYYXfs6CCeIyocPQx7ss8jdguxeOyNs9qQt1TZ52n9wTWy0rgLBBQPO4AckxSRFzCwQ2H7frrrz80WUbkBgcVwYhTwsRGehsr3mXK2A6aOKtLOCmNm5sVd5xExmXu/C8Tj1HwBSeMxRCOIYcvRAKiJtK1a8Qj92K/G89FRJl2KR4jekNmwN133714+OGHD8QjWQPLCmHsKvIYwod+lXtIx8RjFOzAoSY1kRQ8xCMLWLyLyjT5yHRggSrS5KP9pCKSgpcfOPikFBJ1jehbLgDZ54pd8kgp12WfINFpIqCrxCP3RwCRLok4yL8vGmOGxbV8gSPaGO9PUh2JrLEfctv+l+KRSC3p0LRh6DucPCf8hvay/49UScQygjz/fa14XDY2wz5wG7IfnOKZDfG37gRA5JLxRLQ/9iWSqp4fmzKgnSwOENFGqJWF4GKuJNU9MhnifcRCVZ5xsIl4JD2cMTbGiPcK70Ki1zxHLP7G9Ve1eV2e/m6cgPO0o0MC0yWgeKy03dgqb/w7jg4TYqTphFPFRHrPPfeckWKWp4yNrZZWNncWpzspjZs5IkS///77GVGJMfEY4xjBgiMf0YkQE+yRCocPQYkzn4uKEAKkII4dQ/vd4vekSbIXqnRga9NWcVR5BimGgaPIQg5iLN/zGAKL9D/EEpG7KDqzK/EYUVz2TOV7GGE1JB4jRZ5ISkRMYvEq0opLzkNiMPY8YivSj8ujvHcuHmGEWIMXERuuj9jA1ogW0mmXicevvvoqjSNSXxGcpEgOiUec+iExXNqeRRDau2n/yz2P9ANBQYEVxPNzzz13EK2iEjHjBaHD3kgOCuYwPllo4CjFI21fdowVzFk1NuNZpS333Xff4sILLzx0m19++WXx7rvvnjGeV738Y0zzO4ol8d+kdMdiRC0D7EPaal64iXtFf1jciEyGEJREKyMqGM/EUNGr8nlhbiUqSyGbsTH+zTffpAWjSy655CAiXxbkGWvzKpb+fTUB5+nVjPyFBFoloHistExMcuzVKDfML0stGrttOPf8fShdrrK5szjdSWnczIgPnGAcV5x/9h9R/GNMPEaRDKJziMdI3yyrqvLvRGzCiY7PSIR4JDWRQlLsMYqD9EdEE38rUxbZe8VeKETSeeedd6j4R614pA20l3s8+eST6fuKpXhkTzKf2MD5DMFQkl2nYM6qhw7RiJApi5wMiceolMs1ed/ccsstSWCtI55gHY50VFsdiq6VjjjVO3PxSLEkRAVMOJ99a0Q9Edk4+5FiOJS2SmowBYIQaQiFyy677FCV37zaalS+zRluKx7L/g9VW+U+FIhhbJDOTFptiF3aBYu77rorFRii7ew3pc+5+A1+Y4Vdhoot5RG1VWMzL3q1amzliyGrfstCCntjo6AMVUljD/+2DEh3RfxRffyjjz46VKAm2lRWVWUhikWjMu123cjjJuKRQlgR4eb667Z5FU//vpyA87QjRALTJaB4rLQdjifpqssOUlPLYgBjv1+WPljZ1Nmc7qS03NREu4gO4dyTIk3FRhY/cJxwghElpOERRSSdi/9PKuL9999/xoVDtJBeyt7DKF+fVx+tSVulHYgMKq1SWj+v/FgjHtnjhbNIKl0I4thHOORs41RT2IVqn1Fpc5Nqq6sevLziJQKS6pDsSUXkwxgRQhEuHGnEPoKF9Hiqs3LEN2PH0lajKAkRtTJtdWjPXxQLCrHF54bKfYu5+KRoDO2J/ZbLxCN7Sxl7RCrp5zpFk/LPu9DfSL1mPK6TtrpJ/ymKQ1/gHNsQ4h1PlBRRs889j+uMzYgk52J41Rjb5O8sMPHcM+YRxjzftQz4rAsLNUREY9Ejb1Okb1933XWpkjPPIVs5ygXZdcUjIn9V2mqkPxPpLdNWWRRZ1eZNmPrbwwScpx0VEpguAcVjhe2iAh3FI1jpJEJSHqzYfvbZZweOSPwdB56KiOWH18OZolCIn/HYzjhOSqu5EVUjsoLDzycqxg7GNalb5ffQ+H2kfZHOSXEJFkjKRZJa8Ui1VSJVOJFEJyicw1EjHklVw0knxTKuNyYe80hfXmlzV2mrwR0BSeEa/sd+t7GD/dGkqxL9ChGzbsEYCunEPtdoP2zLzwkNFQArxWP8N+n13B/RhcNNRHpMPPKpBKKViPC8smcZuYsxQzro0KJb7LeNbwPW9H9IPMdeuBtuuCGNuxDxQ7+NT9Mg6Hex53HdsRn2GyrItvrp/79f8A6gGA6LCoin/Lud5fO1CwakvrNowBYObJfPfSGISVdnTPJu4vMnjK/82EQ8rlswh8WzqBxcXn9Zm9fl7O+GCThPOzIkMF0CiscK2yHumGyY8MuKhXHZ+P4jzjUb//l2GftpiCbkVeTi9+GMUELfz3hsZxwnpfW54UDyLUC+68Y39BCSOHd8joBoH3u6ygIscfXY60aBDfZIUYSHSFBe1bBWPBJ1CkeW9DKeOdIFtxWPnM932thDmUc1hsRjlPrnmcw/c0H/dy0ecxHJYhP2IMJGxUw+5UF7sQmMyz1j636qgvRBon15+8mKoKgK383jyPdd5ym5pXiMvZqIRr7bxzuNiHPYm2uVaaucg2AgdTWK9CyLPCIkiFLCmvRRjvhUB/v8ItJZ0/8hQYiwRbQQJWU8I2SIQpbf4WTfMBEyxk6+b5d2blMwZ5OxGd9fJeUbkZTvCY52wY+2Rzp5+VbI988SWSRFG/vkn/sgm4BFm6eeeqqaQdiaMc3iDfs18yPmU1Kx+a5s/umT+N0m4nGdT3Vw3TwSWl5/VZvXf9P6y5KA87RjQgLTJaB43NJ24TgzwZWFLvJLDhXEiEmS6AETP4KSIyb92HMRjt6WTZztaU5Km5t+23TpGMvcceg52IV4zPdphqAJMUNkcmwvJcKYyClprzfffPNBARpEKHu5+FB5HKV4zAVJ+cH4fYrH3HJj1VaHrBvfc+R7laQQUwSHPrAwQCSzFGEhfkkT5FzSl1mwiorPfDidb3vG3tWhz21EKuNQwaMh8UiaMBVs86jTMvHI+5CIHm2gPyxssFCBkCS1Ma8Su23/EeZUdY2DaDrihnGFaCKKStEVoqOkKhP5pZAP7WYPH3uBY1EjF6LbiEfmgnXGZrSVqBhRM8Y5qZfHjh1Ln9FBYPPclTYcGjdEbekblWOjb0SesTff1oxo+64YnDp1Kj2PtLdMSY2I95dffpmK3QwtyG4iHulvfM+R8UHkmyyJ2NOJjfNvZI6J/mVt3vxN6xlBwHnasSCB6RJQPG5pu4gQUtgjLyU+dLlw1PhIMUUAiBxQrIEy9aSS3XHHHem0MUdvyybO9jQnpc1Nv6145OPe4cTHNwHzu+9CPHK9KNhBJJKIE98AJKKCIFl1hFMfYmyoknEpHqNQEMKC1EmczvzYV+RxW/HIeUQNEcUIetLeec+wl5Vqptgoj1hG++kb31wkEoQ44veICQrikFYfx5B4jD1jCLuouLss8si1ygI9q/Y8klZJZJR3I84+IjeKC5V236b/5TUYX0R4SZlkcSGi7ogrom+0gzbDifc5QojsEtKfx74XiGhZNXY2GZv5tWgXtiRaDXvaT9t4NrB5bsOx54S01Zdeemlx4sSJdA0WEYY474IBNiJKTQEdxGG+AMAiEc8mz/dQVs6YuIt+jS22RP8Qkt9///2CQkBkVRApL9Pxh8Tpsjavevf493ECztOODglMl4DicUvbhfOV75cYu1QITf4ee3jY40RaKk4XjjEHK9o4bTgl5V7ILZs5y9OclM6e2SNawAJIuXfu7LVi+E4hCIdSE4+6bUd9/3h/tchm2YLDUXPz/vsjENk8vFNWLcjurxVe+WwRcJ4+W6S9jwR2T0DxuHumXvGICTgpnR0D/Pfff6kMP3vEypL6Z6cFy++ieBzno3hsYYTahpwA0UjSq0lZpeKtR98EnKf7tq+965uA4rFv+86yd05K+zX7yZMnUwofxTpIjyTF7/jx42cUytlvC9a7uuJR8bjeSPFXR0WAiuWksZI6zd7cG2+88YzvyR5Vu7zv/gk4T++fsXeQwL4IKB73RdbrHhkBJ6X9oqegBYVPKDxBUQ4+5RGFVfZ7Z6++KxvnHY0AAATySURBVAJGHndF0uvUEOBzLFSxZZ8uha8YlxS38uifgPN0/za2h/0SUDz2a9vZ9sxJabamt+MSkIAEJDABAs7TEzCSTZTACAHFo0OjOwJOSt2Z1A5JQAISkEBHBJynOzKmXZkdAcXj7Ezef4edlPq3sT2UgAQkIIHpEnCenq7tbLkEFI+Oge4IOCl1Z1I7JAEJSEACHRFwnu7ImHZldgQUj7Mzef8ddlLq38b2UAISkIAEpkvAeXq6trPlElA8Oga6I+Ck1J1J7ZAEJCABCXREwHm6I2PaldkRUDzOzuT9d9hJqX8b20MJSEACEpguAefp6drOlktA8egY6I6Ak1J3JrVDEpCABCTQEQHn6Y6MaVdmR0DxODuT999hJ6X+bWwPJSABCUhgugScp6drO1suAcWjY6A7Ak5K3ZnUDklAAhKQQEcEnKc7MqZdmR0BxePsTN5/h52U+rexPZSABCQggekScJ6eru1suQQUj46B7gg4KXVnUjskAQlIQAIdEXCe7siYdmV2BBSPszN5/x12UurfxvZQAhKQgASmS8B5erq2s+USUDw6Broj4KTUnUntkAQkIAEJdETAebojY9qV2RFQPM7O5P132EmpfxvbQwlIQAISmC4B5+np2s6WS0Dx6BjojoCTUncmtUMSkIAEJNARAefpjoxpV2ZHQPE4O5P332Enpf5tbA8lIAEJSGC6BJynp2s7Wy4BxaNjoDsCTkrdmdQOSUACEpBARwScpzsypl2ZHQHF4+xM3n+HnZT6t7E9lIAEJCCB6RJwnp6u7Wy5BBSPjoHuCDgpdWdSOyQBCUhAAh0RcJ7uyJgT7Arjz6OOAARPnz59uu4qni2BRgg4KTViCJshAQlIQAISGCDgPO2wOEoCjr86+kYe6/h5doMEfCk0aBSbJAEJSEACEvh/As7TDoWjJOD4q6OveKzj59kNEvCl0KBRbJIEJCABCUhA8egYaICAfmKdERSPdfw8u0ECvhQaNIpNkoAEJCABCSgeHQMNENBPrDOC4rGOn2c3SMCXQoNGsUkSkIAEJCABxaNjoAEC+ol1RlA81vHz7AYJ+FJo0Cg2SQISkIAEJKB4dAw0QEA/sc4Iisc6fp7dIAFfCg0axSZJQAISkIAEFI+OgQYI6CfWGUHxWMfPsxsk4EuhQaPYJAlIQAISkIDi0THQAAH9xDojKB7r+Hl2gwR8KTRoFJskAQlIQAISUDw6BhogoJ9YZwTFYx0/z26QgC+FBo1ikyQgAQlIQAKKR8dAAwT0E+uMoHis4+fZDRLwpdCgUWySBCQgAQlIQPHoGGiAgH5inREUj3X8PLtBAr4UGjSKTZKABCQgAQkoHh0DDRDQT6wzguKxjp9nN0jAl0KDRrFJEpCABCQgAcWjY6ABAvqJdUZQPNbx8+wGCfhSaNAoNkkCEpCABCSgeHQMNEBAP7HOCIrHOn6e3SABXwoNGsUmSUACEpCABBSPjoEGCOgn1hlB8VjHz7MbJOBLoUGj2CQJSEACEpCA4tEx0AAB/cQ6Iyge6/h5doMEfCk0aBSbJAEJSEACElA8OgYaIKCfWGcExWMdP89ukIAvhQaNYpMkIAEJSEACikfHQAME9BPrjKB4rOPn2Q0S8KXQoFFskgQkIAEJSEDx6BhogIB+Yp0RDsRj3WU8WwISkIAEJCABCUhAAhKQgAR6J/A/pkhgZ1BKaYgAAAAASUVORK5CYII=;movable=0;resizable=0;rotatable=0;deletable=0;editable=0;locked=1;connectable=0;" parent="1" vertex="1">
          <mxGeometry x="780" y="572.5" width="950" height="690" as="geometry" />
        </mxCell>
        <mxCell id="9Vf31KSs8LojfyU494A8-3" style="edgeStyle=orthogonalEdgeStyle;rounded=0;orthogonalLoop=1;jettySize=auto;html=1;exitX=0;exitY=0.25;exitDx=0;exitDy=0;entryX=0;entryY=0.25;entryDx=0;entryDy=0;" parent="1" target="aq_8wqEdBt7ugzdirpVi-1" edge="1">
          <mxGeometry relative="1" as="geometry">
            <mxPoint x="790" y="805" as="sourcePoint" />
          </mxGeometry>
        </mxCell>
        <mxCell id="9Vf31KSs8LojfyU494A8-4" style="edgeStyle=orthogonalEdgeStyle;rounded=0;orthogonalLoop=1;jettySize=auto;html=1;exitX=0;exitY=0.75;exitDx=0;exitDy=0;entryX=0;entryY=0.75;entryDx=0;entryDy=0;" parent="1" target="aq_8wqEdBt7ugzdirpVi-1" edge="1">
          <mxGeometry relative="1" as="geometry">
            <mxPoint x="790" y="850" as="sourcePoint" />
          </mxGeometry>
        </mxCell>
        <mxCell id="9Vf31KSs8LojfyU494A8-7" style="edgeStyle=orthogonalEdgeStyle;rounded=0;orthogonalLoop=1;jettySize=auto;html=1;exitX=0.25;exitY=1;exitDx=0;exitDy=0;entryX=0.25;entryY=1;entryDx=0;entryDy=0;startArrow=classic;startFill=1;" parent="1" source="aq_8wqEdBt7ugzdirpVi-1" target="9Vf31KSs8LojfyU494A8-1" edge="1">
          <mxGeometry relative="1" as="geometry" />
        </mxCell>
        <mxCell id="9Vf31KSs8LojfyU494A8-9" style="edgeStyle=orthogonalEdgeStyle;rounded=0;orthogonalLoop=1;jettySize=auto;html=1;exitX=1;exitY=0.25;exitDx=0;exitDy=0;entryX=0;entryY=0.5;entryDx=0;entryDy=0;" parent="1" source="aq_8wqEdBt7ugzdirpVi-1" target="9Vf31KSs8LojfyU494A8-2" edge="1">
          <mxGeometry relative="1" as="geometry">
            <Array as="points">
              <mxPoint x="1170" y="805" />
              <mxPoint x="1170" y="917" />
            </Array>
          </mxGeometry>
        </mxCell>
        <mxCell id="aq_8wqEdBt7ugzdirpVi-1" value="&lt;font style=&quot;font-size: 14px;&quot;&gt;&lt;br&gt;&lt;br&gt;Формирование заказа&lt;/font&gt;" style="html=1;align=center;verticalAlign=top;rounded=1;absoluteArcSize=1;arcSize=10;dashed=0;whiteSpace=wrap;" parent="1" vertex="1">
          <mxGeometry x="958.44" y="782.5" width="180" height="90" as="geometry" />
        </mxCell>
        <mxCell id="9Vf31KSs8LojfyU494A8-17" style="edgeStyle=orthogonalEdgeStyle;rounded=0;orthogonalLoop=1;jettySize=auto;html=1;exitX=1;exitY=0.5;exitDx=0;exitDy=0;" parent="1" source="9Vf31KSs8LojfyU494A8-1" edge="1">
          <mxGeometry relative="1" as="geometry">
            <mxPoint x="1710" y="965.1379310344828" as="targetPoint" />
          </mxGeometry>
        </mxCell>
        <mxCell id="9Vf31KSs8LojfyU494A8-1" value="&lt;font style=&quot;font-size: 14px;&quot;&gt;&lt;br&gt;Передача заказа поставщикам&lt;br&gt;&lt;/font&gt;" style="html=1;align=center;verticalAlign=top;rounded=1;absoluteArcSize=1;arcSize=10;dashed=0;whiteSpace=wrap;" parent="1" vertex="1">
          <mxGeometry x="1450" y="920" width="180" height="90" as="geometry" />
        </mxCell>
        <mxCell id="9Vf31KSs8LojfyU494A8-11" style="edgeStyle=orthogonalEdgeStyle;rounded=0;orthogonalLoop=1;jettySize=auto;html=1;exitX=0;exitY=0.75;exitDx=0;exitDy=0;entryX=0;entryY=0.75;entryDx=0;entryDy=0;" parent="1" target="9Vf31KSs8LojfyU494A8-2" edge="1">
          <mxGeometry relative="1" as="geometry">
            <mxPoint x="1050" y="940.3103448275863" as="sourcePoint" />
          </mxGeometry>
        </mxCell>
        <mxCell id="9Vf31KSs8LojfyU494A8-13" style="edgeStyle=orthogonalEdgeStyle;rounded=0;orthogonalLoop=1;jettySize=auto;html=1;exitX=0.75;exitY=1;exitDx=0;exitDy=0;entryX=0.75;entryY=1;entryDx=0;entryDy=0;" parent="1" target="9Vf31KSs8LojfyU494A8-2" edge="1">
          <mxGeometry relative="1" as="geometry">
            <mxPoint x="1170" y="989.9999999999998" as="sourcePoint" />
          </mxGeometry>
        </mxCell>
        <mxCell id="9Vf31KSs8LojfyU494A8-2" value="&lt;font style=&quot;font-size: 14px;&quot;&gt;&lt;br&gt;&lt;br&gt;Подтверждение заказа&lt;/font&gt;" style="html=1;align=center;verticalAlign=top;rounded=1;absoluteArcSize=1;arcSize=10;dashed=0;whiteSpace=wrap;" parent="1" vertex="1">
          <mxGeometry x="1190" y="872.5" width="180" height="90" as="geometry" />
        </mxCell>
        <mxCell id="9Vf31KSs8LojfyU494A8-5" value="Запрос расходных материалов" style="text;html=1;strokeColor=none;fillColor=none;align=center;verticalAlign=middle;whiteSpace=wrap;rounded=0;" parent="1" vertex="1">
          <mxGeometry x="800" y="790" width="170" height="30" as="geometry" />
        </mxCell>
        <mxCell id="9Vf31KSs8LojfyU494A8-6" value="Данные о расходных&lt;br&gt;материалах" style="text;html=1;strokeColor=none;fillColor=none;align=center;verticalAlign=middle;whiteSpace=wrap;rounded=0;" parent="1" vertex="1">
          <mxGeometry x="788.44" y="835" width="170" height="30" as="geometry" />
        </mxCell>
        <mxCell id="9Vf31KSs8LojfyU494A8-8" value="Система" style="text;html=1;strokeColor=none;fillColor=none;align=center;verticalAlign=middle;whiteSpace=wrap;rounded=0;" parent="1" vertex="1">
          <mxGeometry x="1010" y="1010" width="170" height="30" as="geometry" />
        </mxCell>
        <mxCell id="9Vf31KSs8LojfyU494A8-10" value="Сформированный &lt;br&gt;заказ" style="text;html=1;strokeColor=none;fillColor=none;align=center;verticalAlign=middle;whiteSpace=wrap;rounded=0;rotation=-90;" parent="1" vertex="1">
          <mxGeometry x="1083" y="850" width="170" height="30" as="geometry" />
        </mxCell>
        <mxCell id="9Vf31KSs8LojfyU494A8-12" value="Идентификатор&lt;br&gt;администратора" style="text;html=1;strokeColor=none;fillColor=none;align=center;verticalAlign=middle;whiteSpace=wrap;rounded=0;" parent="1" vertex="1">
          <mxGeometry x="1030" y="925" width="170" height="30" as="geometry" />
        </mxCell>
        <mxCell id="9Vf31KSs8LojfyU494A8-14" value="Администратор" style="text;html=1;strokeColor=none;fillColor=none;align=center;verticalAlign=middle;whiteSpace=wrap;rounded=0;" parent="1" vertex="1">
          <mxGeometry x="1160" y="970" width="170" height="30" as="geometry" />
        </mxCell>
        <mxCell id="9Vf31KSs8LojfyU494A8-15" style="edgeStyle=orthogonalEdgeStyle;rounded=0;orthogonalLoop=1;jettySize=auto;html=1;exitX=1;exitY=0.25;exitDx=0;exitDy=0;entryX=0.012;entryY=0.847;entryDx=0;entryDy=0;entryPerimeter=0;" parent="1" source="9Vf31KSs8LojfyU494A8-2" target="9Vf31KSs8LojfyU494A8-1" edge="1">
          <mxGeometry relative="1" as="geometry" />
        </mxCell>
        <mxCell id="9Vf31KSs8LojfyU494A8-16" value="Отредактированный&lt;br&gt;заказ" style="text;html=1;strokeColor=none;fillColor=none;align=center;verticalAlign=middle;whiteSpace=wrap;rounded=0;rotation=-90;" parent="1" vertex="1">
          <mxGeometry x="1324" y="925" width="170" height="30" as="geometry" />
        </mxCell>
        <mxCell id="9Vf31KSs8LojfyU494A8-18" value="Данные о &lt;br&gt;заказе" style="text;html=1;strokeColor=none;fillColor=none;align=center;verticalAlign=middle;whiteSpace=wrap;rounded=0;" parent="1" vertex="1">
          <mxGeometry x="1580" y="950" width="170" height="30" as="geometry" />
        </mxCell>
        <mxCell id="9Vf31KSs8LojfyU494A8-20" value="51" style="text;html=1;strokeColor=none;fillColor=none;align=center;verticalAlign=middle;whiteSpace=wrap;rounded=0;" parent="1" vertex="1">
          <mxGeometry x="1120" y="850" width="10" height="30" as="geometry" />
        </mxCell>
        <mxCell id="9Vf31KSs8LojfyU494A8-21" value="52" style="text;html=1;strokeColor=none;fillColor=none;align=center;verticalAlign=middle;whiteSpace=wrap;rounded=0;" parent="1" vertex="1">
          <mxGeometry x="1350" y="940" width="10" height="30" as="geometry" />
        </mxCell>
        <mxCell id="9Vf31KSs8LojfyU494A8-22" value="53" style="text;html=1;strokeColor=none;fillColor=none;align=center;verticalAlign=middle;whiteSpace=wrap;rounded=0;" parent="1" vertex="1">
          <mxGeometry x="1620" y="990" width="10" height="30" as="geometry" />
        </mxCell>
        <mxCell id="4UJsVI2hbKWEu2icjQd4-1" value="" style="endArrow=classic;html=1;rounded=0;" edge="1" parent="1">
          <mxGeometry width="50" height="50" relative="1" as="geometry">
            <mxPoint x="1138.44" y="790" as="sourcePoint" />
            <mxPoint x="1368.44" y="790" as="targetPoint" />
          </mxGeometry>
        </mxCell>
        <mxCell id="4UJsVI2hbKWEu2icjQd4-2" value="Отчет о заказе расходных&lt;br&gt;материалах" style="text;html=1;strokeColor=none;fillColor=none;align=center;verticalAlign=middle;whiteSpace=wrap;rounded=0;" vertex="1" parent="1">
          <mxGeometry x="1170" y="770" width="170" height="30" as="geometry" />
        </mxCell>
      </root>
    </mxGraphModel>
  </diagram>
  <diagram id="30CSTh-y9SVbLgZfz-_A" name="Страница — 2">
    <mxGraphModel dx="5413" dy="2800" grid="1" gridSize="10" guides="1" tooltips="1" connect="1" arrows="1" fold="1" page="1" pageScale="1" pageWidth="3300" pageHeight="2339" math="0" shadow="0">
      <root>
        <mxCell id="0" />
        <mxCell id="1" parent="0" />
      </root>
    </mxGraphModel>
  </diagram>
</mxfile>
